<?xml version="1.0" encoding="UTF-8" standalone="no"?>
<!-- Created with Inkscape (http://www.inkscape.org/) -->

<svg
   width="200"

   viewBox="29 2 13.781457 13.477062"
   version="1.1"
   id="svg5"
   xml:space="preserve"
   sodipodi:docname="charizard.svg"
   inkscape:version="1.2 (dc2aeda, 2022-05-15)"
   xmlns:inkscape="http://www.inkscape.org/namespaces/inkscape"
   xmlns:sodipodi="http://sodipodi.sourceforge.net/DTD/sodipodi-0.dtd"
   xmlns="http://www.w3.org/2000/svg"
   xmlns:svg="http://www.w3.org/2000/svg"><sodipodi:namedview
     id="namedview7"
     pagecolor="#ffffff"
     bordercolor="#000000"
     borderopacity="0.25"
     inkscape:showpageshadow="false"
     inkscape:pageopacity="0.0"
     inkscape:pagecheckerboard="false"
     inkscape:deskcolor="#d1d1d1"
     inkscape:document-units="mm"
     showgrid="false"
     showborder="false"
     borderlayer="false"
     shape-rendering="auto"
     inkscape:zoom="0.9152955"
     inkscape:cx="297.71806"
     inkscape:cy="288.97771"
     inkscape:window-width="1680"
     inkscape:window-height="969"
     inkscape:window-x="0"
     inkscape:window-y="25"
     inkscape:window-maximized="0"
     inkscape:current-layer="layer1" /><defs
     id="defs2" /><g
     inkscape:label="Layer 1"
     inkscape:groupmode="layer"
     id="layer1"
     transform="translate(-1.3783115,-98.722558)"><g
       id="g4564"
       transform="matrix(0.14406778,0,0,0.14406778,24.98563,84.059844)"><path
         fill="#0d131a"
         d="m 104.73578,151.54999 -0.17193,-0.11903 0.22483,0.47612 q 0.1058,0.2116 0.47612,0.50256 l 0.37031,0.33064 -0.0132,-0.37031 q -0.0265,-0.26451 -0.8861,-0.81998 m 7.803,-4.00731 q 0.15871,-0.60837 0.6216,-1.49447 l 0.44966,-0.80675 q 0.15871,-0.23806 0.43644,-0.15871 0.26451,0.0926 0.23806,0.38354 l -0.13226,1.82511 q -0.11902,1.93091 -0.0529,2.61863 0.0397,0.33064 0.17193,0.50257 l 0.38354,0.29096 0.55547,0.33064 q 0.38354,0.26451 0.56869,0.56869 0.47612,0.75385 0.63482,2.32768 0.15871,1.45479 -0.0661,2.16897 -0.0794,0.25128 -0.0265,0.43644 0.0397,0.17193 0.23806,0.39676 l 0.30419,0.17193 0.26451,0.19838 0.1058,0.46289 q -0.0132,0.17193 -0.18516,0.37031 l -0.29096,0.39677 q -0.1587,0.29096 -0.1587,0.52901 l 0.0794,0.54225 q 0.0529,0.43643 -0.0397,0.68772 -0.11903,0.37031 -0.48935,0.38354 -0.42321,-0.0397 -0.58191,0 -0.31741,0.0926 -0.48935,0.23805 -0.25128,0.26451 -0.33063,0.70095 -0.0926,0.42321 0.0265,0.68772 l 0.25128,0.0794 0.30419,0.0794 0.40999,0.0926 q 0.23805,0.11903 0.27773,0.39676 l -0.19838,0.27773 -0.37031,0.44967 -0.48934,0.51579 q -0.31741,0.35709 -0.14548,0.50257 0.11902,0.0926 0.44966,-0.38354 0.47612,-0.68772 0.75385,-0.95223 0.81998,-0.79353 1.73253,-1.09771 1.09771,-0.42322 1.09771,-0.33064 l -0.19838,0.26451 -0.21161,0.25128 q 0.87288,-0.42321 2.43348,-1.00513 l 0.6216,-0.1058 q 0.47611,-0.0661 0.48934,0 0.0264,0.11903 -0.35709,0.39676 l -0.50256,0.34386 -3.39894,2.65831 q -0.52902,0.42322 -1.04481,1.22997 -0.43644,0.64804 -0.58192,1.09771 -0.0926,0.30418 -0.33063,0.46289 l -0.47612,0.27773 -0.25128,0.18516 0.0132,0.0793 q 0.0926,0.39676 -0.0264,1.04481 l -0.27773,0.29096 -0.30419,0.25128 q 3.10798,5.09179 4.03376,10.10423 1.4019,7.51205 -2.52606,13.30478 -4.98598,7.34012 -12.02191,9.2049 -3.00218,0.79353 -6.877227,0.76708 l -7.512045,-0.54224 q -6.401108,-0.7274 -11.902887,-4.82729 -1.745757,-1.30931 -3.21378,-2.83024 l -1.229965,-1.37544 0.224832,-1.09771 21.4781,-5.77952 0.370312,1.5606 0.608369,-0.55546 q 0.06613,-0.22484 0,-0.43644 -0.06613,-0.18516 -0.17193,-0.27774 l 3.015398,1.49448 q 3.015403,1.48125 6.215953,0.50256 3.86182,-1.17706 6.58626,-5.73983 1.79866,-3.0154 1.48125,-7.03593 -0.23806,-3.05508 -1.57382,-6.09693 -0.97869,0.0397 -1.11094,0.18516 -0.38354,0.43644 -0.7274,0.52902 -0.7274,0.22483 -1.83833,-0.52902 l -0.0529,-0.0397 q -0.35708,-0.23805 -0.30418,-1.00513 l -0.0397,-0.39676 -0.11903,-0.29096 q -0.1058,-0.11903 -0.33063,-0.21161 l -0.54224,-0.22483 -0.54225,0.0529 -0.64804,0.27774 q -0.75385,0.44966 -0.92578,0.48934 -0.58192,0.14548 -0.93901,-0.80676 l -0.29096,-1.12416 -0.0661,-0.19838 -0.30418,-0.64804 q -0.14548,-0.37032 0.0794,-0.7274 0.13226,-0.22484 0.27774,-1.09771 0.14548,-0.87288 0.13225,-1.349 l -0.0132,-0.54224 q 0,-0.38354 0.1587,-0.7274 0.0926,-0.19838 0.35709,-0.56869 l 0.43644,-0.70095 0.13225,-0.51579 -0.0661,-0.46289 q -0.13225,-0.51579 -0.1058,-0.89933 l 0.0397,-0.64805 q 0.0264,-0.38354 0.14548,-0.67449 0.0529,-0.13226 0.35708,-0.64805 0.21161,-0.37031 0.19838,-0.52902 -0.0265,-0.26451 -0.46289,-1.49447 -0.43644,-1.16384 -0.51579,-1.66641 -0.0793,-0.51579 -0.0793,-1.12416 l 0.0132,-0.54224 q 0.0132,-0.14548 0.14547,-0.25128 l -1.17706,-1.03159 q -0.1058,-0.0926 -0.11903,-0.22483 -0.0264,-0.14548 0.0661,-0.26451 0.0661,-0.1058 0.21161,-0.14548 l 0.25128,0.0397 q 1.22996,0.62159 1.57383,0.70095 l 0.70094,-0.0132 0.31741,-0.0529 q 0.70095,-0.1058 1.52093,0.71417 l 0.1058,0.11903 -0.17193,-1.42834 q -0.0397,-0.5687 0.40999,-1.78544 0.34386,-0.87288 0.84643,-1.87801 0.2116,-0.42321 0.34386,-1.6664 l 0.1058,-1.71931 q 0,-0.29096 0.27774,-0.34386 0.27773,-0.0661 0.40998,0.18516 l 0.17194,0.44966 q 0.17193,0.52902 0.17193,1.00513 0,0.34386 0.18515,1.24319 l -0.11903,-1.07126 q -0.0132,-0.14548 0.0661,-0.26451 0.0926,-0.13225 0.23806,-0.1587 0.14548,-0.0132 0.27773,0.0661 0.11903,0.0794 0.14548,0.22483 l 0.11903,0.52902 q 0.15871,0.58192 0.34386,0.97868 0.17193,0.38354 0.15871,0.89933 l -0.10581,0.8861 -0.0926,0.59515 q -0.0265,0.42321 0.72739,1.41512 l 0.31741,0.42321 0.14548,0.25128 0.0397,-0.55546 q 0.0661,-0.99191 0.19838,-1.46803"
         id="path2336"
         style="stroke-width:0.264509" /><path
         fill="#efe908"
         d="m 111.90396,154.89602 0.23806,-0.13225 q 0.0926,0.0397 0,0.40999 -0.13226,0.54224 -0.11903,1.29609 0.0132,0.70095 0.14548,1.19029 0.11903,0.40999 0.38354,0.75385 0.22483,0.31741 0.23805,0.60837 0.0132,0.68772 -0.1058,1.29609 0,0.13225 0.0926,0.18515 0.0793,0.0529 0.25128,-0.0926 0.17193,-0.21161 0.30419,-0.58192 0.0661,-0.19838 0.0132,-0.47612 -0.0264,-0.34386 0.10581,-0.60837 l 0.2116,-0.43644 q 0.11903,-0.23805 0.23806,-0.19838 l 0.0397,0.22483 -0.0661,0.6745 0.15871,0.23806 0.0661,0.39676 q -0.0264,0.21161 -0.37031,1.00513 l -0.30418,0.88611 q -0.14548,0.44966 -0.11903,0.6745 0.0661,0.62159 0.25128,0.62159 l 0.1058,-0.17193 0.10581,-0.35709 0.42321,-0.80675 q 0.13225,-0.22483 0.50257,-0.59514 -0.29096,0.52901 -0.29096,1.09771 0,0.25128 0.13225,0.58192 0.0926,0.2116 0.52902,0.30418 0.42321,0.0661 0.44966,0.25129 0.0264,0.2116 -0.29096,0.47611 l -0.50256,0.43644 q -0.19838,0.25128 -0.21161,0.51579 -0.0265,0.30419 0.21161,0.46289 0.26451,0.18516 0.76707,-0.51579 l 0.75385,-1.01836 q 0.42322,-0.35708 1.82511,-1.03158 l -0.84643,0.7274 q -0.18515,0.1587 -0.35708,0.46289 l -0.13226,0.27773 0.52902,-0.35709 q 0.63482,-0.40998 1.12416,-0.68772 0.79353,-0.42321 2.61864,-1.09771 l -3.47829,2.49961 q -0.6216,0.48934 -1.20352,1.20351 -0.54224,0.68772 -0.68772,1.12416 -0.11903,0.33064 -0.55547,0.68773 l -0.60837,0.46289 q -0.11902,0.13225 -0.0661,0.38353 l 0.0132,0.66128 q -0.0529,0.22483 -0.26451,0.40998 l -1.95736,-2.11607 -0.84643,-0.75384 -0.46289,-0.33064 0.96546,1.30932 -0.74062,0.0793 -0.17194,0.22483 -0.54224,-0.99191 0.0529,0.44967 q 0.11903,0.60837 0.40999,1.4548 l -0.56869,0.0529 -0.34386,0.1058 -0.22483,-0.0132 q -0.38354,-0.33064 -0.40999,-0.46289 -0.0132,-0.0794 0.0529,-0.15871 l 0.0926,-0.11903 q 0.1587,-0.30418 0.1058,-0.84643 -0.0529,-0.54224 -0.27773,-0.81997 -0.21161,-0.27774 -0.7803,-0.6216 -0.60837,-0.35708 -0.96546,-0.35708 -0.13226,0 -0.42321,0.14548 l -0.46289,0.2116 q -0.25129,0.0661 -0.42322,-0.22483 -0.29096,-0.55547 -0.44966,-1.25642 -0.15871,-0.74062 0.0132,-0.91255 0.19838,-0.19838 1.16384,-0.63482 l 0.6745,-0.38354 q 0.29096,-0.19838 0.35708,-0.40999 0.15871,-0.43644 -0.34386,-1.05803 -0.66127,-0.80675 -0.29096,-1.54738 0.15871,-0.34386 0.76708,-0.56869 0.37031,-0.14548 0.76707,-0.56869 l 0.40999,-0.75385 0.34386,-1.04481 q 0.13226,-0.47612 0.25129,-0.47612 0.0794,0 0.1058,0.37031 0.0264,0.48935 -0.0529,0.96546 l -0.10581,0.63482 q -0.0264,0.18516 0.0264,0.23806 0.0926,0.0926 0.22484,0.0661 0.37031,-0.0926 0.60837,-0.40999 0.27773,-0.39676 0.40999,-1.21674 0.1058,-0.63482 0.46289,-1.17706 l 0.33063,-0.39677"
         id="path2338"
         style="stroke-width:0.264509" /><path
         fill="#e50020"
         d="m 112.88264,147.63526 q 0.15871,-0.58192 0.6216,-1.44157 l 0.42321,-0.75385 -0.13225,1.82511 q -0.13226,1.95736 -0.0529,2.68476 0.0661,0.64805 0.58191,0.99191 0.70095,0.46289 0.93901,0.8332 0.44967,0.71417 0.68772,2.1822 0.23806,1.42834 0.0529,2.03671 -0.14548,0.47612 0.17194,0.92578 l 0.48934,0.66127 q 0.11903,0.25129 0.0397,0.37032 -0.1587,0.18515 -0.27773,0.42321 -0.11903,0.25128 -0.11903,0.63482 0,0.46289 -0.13225,0.81998 -0.13226,0.40999 -0.59515,0.55547 -0.59514,0.18515 -0.7803,0.37031 l -0.21161,0.27773 q -0.42321,0.44967 -0.7274,1.15061 l -0.1587,0.50257 -0.11903,0.23806 q -0.0794,0.0265 -0.1587,-0.14548 l -0.13226,-0.47612 q -0.0397,-0.27773 0.0661,-0.66127 l 0.25128,-0.75385 0.27774,-0.68772 0.1587,-0.52902 -0.0132,-0.31741 -0.10581,-0.14548 q -0.1058,-0.1587 -0.1058,-0.31741 l 0.0661,-0.48934 q 0.0397,-0.21161 -0.0132,-0.22483 -0.11903,-0.0264 -0.33064,0.46289 -0.19838,0.42321 -0.1587,0.68772 v 0.46289 q -0.29096,0.81998 -0.59515,0.76708 -0.22483,-0.0397 -0.1058,-0.50257 l 0.0661,-0.92578 q 0,-0.37031 -0.18516,-0.63482 -0.29096,-0.38354 -0.37031,-0.66127 -0.29096,-1.01836 -0.23806,-1.94414 0.0132,-0.30419 0.15871,-0.7803 0.18515,-0.6216 -0.37031,0.0397 -0.40999,0.54224 -0.55547,1.19028 -0.23806,1.11094 -0.54224,1.48125 -0.0926,0.10581 -0.29096,0.21161 -0.22484,0.11903 -0.37032,0.1058 l -0.1587,-0.1058 -0.0397,-0.14548 0.18516,-1.38867 q 0.0397,-0.59514 -0.0794,-0.59514 -0.0661,0 -0.14548,0.25128 l -0.18516,0.59514 q -0.31741,1.00514 -0.52902,1.25642 l -0.50256,0.46289 -0.50257,0.30418 q -0.23806,0.0926 -0.35709,0.18516 -0.1587,0.13225 -0.26451,0.39676 -0.19838,0.44967 -0.0397,0.88611 l 0.37031,0.60837 0.30419,0.51579 q 0.0926,0.23806 0.0132,0.50256 -0.0529,0.14548 -0.37031,0.39677 l -0.88611,0.50256 q -0.60836,0.22484 -0.939,0.54225 -0.33064,0.34386 0.40999,2.10284 0.13225,0.26451 0.37031,0.19838 l 0.42321,-0.19838 q 0.33064,-0.15871 0.5687,-0.15871 0.26451,0 0.89933,0.39677 0.59514,0.35708 0.7803,0.56869 0.18515,0.19838 0.26451,0.75385 0.0794,0.51579 0,0.7803 l -0.18516,0.33064 q -0.0794,0.13225 0.0264,0.22483 l 0.26451,0.25128 q 0.13225,0.11903 0.27773,0.0926 l 0.35709,-0.11903 0.51579,-0.0529 0.29096,0.7803 -0.13225,-0.0264 q -0.30419,-0.0661 -0.76708,0.42321 l -0.68772,0.6216 q -0.40999,0.1058 -1.58705,-0.6745 -0.21161,-0.14548 -0.19838,-0.38354 0.0264,-0.38353 -0.0529,-0.59514 -0.11902,-0.34386 -0.47611,-0.52902 -0.46289,-0.17193 -0.74063,-0.33063 l -1.00513,0.0529 -0.95223,0.38354 q -0.33063,0.0794 -0.70095,-0.44967 -0.27773,-0.40999 -0.46289,-0.95223 l -0.19838,-0.70095 q -0.0529,-0.33063 0.14548,-0.64804 0.18516,-0.30419 0.21161,-1.46803 l -0.0264,-1.63995 q 0,-0.43644 0.30418,-0.87288 l 0.60837,-0.96546 q 0.23806,-0.48934 0.13226,-1.01835 -0.14548,-0.75385 -0.13226,-0.99191 0.0264,-0.35709 0.40999,-1.32254 0.35709,-0.88611 0.31741,-1.24319 -0.0265,-0.35709 -0.46289,-1.54738 -0.44966,-1.25642 -0.51579,-1.62673 -0.0793,-0.48934 -0.0661,-1.08448 l 0.0132,-0.50257 0.0661,0.25128 q 0.10581,0.31741 0.30419,0.66128 0.1587,0.29096 0.54224,0.60837 0.42322,0.34386 0.60837,0.62159 0.18516,0.27773 0.25128,0.6745 0.18516,-1.11094 0.11903,-1.65318 -0.0397,-0.35709 -0.52901,-0.74063 l -0.81998,-0.54224 q -0.26451,-0.18515 -1.00513,-0.84643 l -0.70095,-0.62159 0.64805,0.31741 q 0.70094,0.34386 1.00513,0.42321 l 0.59514,0.0397 0.55547,-0.1058 q 0.54224,-0.0794 1.22997,0.60837 0.13225,0.13225 0.19838,0.54224 0.0794,0.43644 0.34386,0.80675 0.48934,0.66127 0.55547,1.03158 -0.48934,-3.1741 -0.55547,-3.96763 -0.0397,-0.52901 0.43644,-1.7193 0.31741,-0.8332 0.79352,-1.75898 0.26451,-0.52902 0.39677,-2.0764 l 0.0794,-1.45479 0.1587,0.38353 q 0.15871,0.47612 0.15871,0.89933 0,0.35709 0.1587,1.19029 l 0.19839,1.24319 q 0.0661,0.7274 0.11902,0.60837 0.18516,-0.23806 0.37032,-0.79352 0.18515,-0.54225 -0.0661,-2.1293 l 0.13225,0.54224 0.35709,1.04481 q 0.18516,0.40999 0.1058,1.07126 l -0.1587,1.12416 q -0.0397,0.44967 0.38354,1.09772 l 0.71417,0.97868 q 0.37031,0.54224 0.42321,1.21674 0.25129,-0.42322 0.37032,-0.97868 l 0.0794,-0.92578 q 0.0264,-0.68773 0.1587,-1.20352"
         id="path2340"
         style="stroke-width:0.264509" /><path
         fill="#ddd583"
         d="m 77.967506,197.01902 q -1.745756,-1.26964 -3.213779,-2.69799 l -1.124162,-1.19029 10.289385,-2.76411 q 1.454798,2.73766 3.703121,4.90663 3.53119,3.38571 8.093963,4.28504 8.662656,1.69286 16.452436,-3.78247 1.62673,-1.15061 3.04185,-2.8567 -4.88019,6.99626 -11.67806,8.70234 -2.86991,0.7274 -6.586261,0.6745 l -7.128507,-0.54225 q -6.255628,-0.71417 -11.849986,-4.7347"
         id="path2342"
         style="stroke-width:0.264509" /><path
         fill="#d18200"
         d="m 85.003436,190.10212 4.668576,-1.26964 q 1.798659,3.26668 5.50178,5.25049 3.795698,2.02349 8.371698,2.02349 3.98085,0 7.43269,-1.5606 3.34603,-1.52092 5.39598,-4.13956 -1.70608,3.09475 -4.48342,4.97277 -7.65753,5.17114 -16.095353,3.51796 -4.351167,-0.85965 -7.485594,-4.07343 -1.745757,-1.79866 -3.306357,-4.72148"
         id="path2344"
         style="stroke-width:0.264509" /><path
         fill="#f29600"
         d="m 111.07076,167.30148 -0.18516,-1.04481 0.54225,0.47611 0.47611,0.6745 1.60028,2.15574 q 2.07639,2.9625 3.43861,6.93013 1.30932,3.80892 1.30932,6.59949 0,3.88828 -1.87801,7.31366 -2.04995,2.61864 -5.39598,4.13956 -3.45184,1.5606 -7.43269,1.5606 -4.576,0 -8.371698,-2.02349 -3.703121,-1.98381 -5.50178,-5.25049 l 5.435652,-1.46803 0.29096,0.27774 q 0.740624,0.50256 2.962496,1.58705 3.21378,1.57383 6.74497,0.51579 4.25859,-1.26964 7.16818,-6.12337 1.87801,-3.13443 1.42835,-7.43269 -0.33064,-3.09476 -1.78543,-6.44079 -0.7274,-1.6664 -1.24319,-2.53928 l -0.13226,-0.6216 0.52902,0.71418"
         id="path2346"
         style="stroke-width:0.264509" /><path
         fill="#d18200"
         d="m 87.489816,193.91104 q -1.269641,-1.52092 -2.48638,-3.80892 l 10.091003,-2.72444 0.03968,0.0661 q 0.119029,0.13225 0.568694,0.39676 0.264508,1.16384 0.264508,2.35413 0,2.23509 -0.886103,4.25858 -0.859653,1.95737 -2.420254,3.43862 -2.949271,-1.33577 -5.171144,-3.98086"
         id="path2348"
         style="stroke-width:0.264509" /><path
         fill="#ddd583"
         d="m 76.208524,195.6568 q -0.793526,-1.34899 -1.190289,-2.89637 l 8.900715,-2.3938 q 1.07126,2.04994 2.697988,3.8486 2.420254,2.72444 5.501779,4.16601 -1.401896,1.15061 -3.0683,1.77221 -1.745757,0.64804 -3.610542,0.66127 -4.946311,-1.57383 -9.231351,-5.15792"
         id="path2350"
         style="stroke-width:0.264509" /><path
         fill="#0d131a"
         d="m 63.895648,127.61196 -3.8486,4.25859 q -0.238058,0.33063 -0.238058,1.86478 0,1.71931 0.343862,3.5841 0.211606,1.21673 0.952231,3.13442 0.753849,1.98382 1.296092,2.64509 l 1.957363,2.20865 1.811884,2.04994 q 0.409989,0.59514 0.581919,1.97059 0.370312,2.42025 0.60837,3.1212 0.330636,0.95223 0.819977,1.83833 0.357087,0.63482 1.07126,1.70608 0.965456,1.41512 2.235098,2.71122 l 0.581918,-0.23806 0.700948,-0.0397 q 0.357087,0.11903 0.502567,0.66127 l 0.17193,0.89933 0.833202,0.55547 q 0.251284,0.17193 0.317411,0.50257 0.03968,0.30418 -0.14548,0.55547 l -1.930913,2.4996 -1.216739,3.08153 q -0.14548,0.38353 -0.555469,0.44966 -0.185156,0.0397 -0.542242,-0.13225 l -0.476116,-0.31741 q -1.401895,-1.69286 -2.883144,-3.0683 -2.221872,-2.04994 -3.544415,-2.30123 -0.965456,-0.18515 -1.983815,0.15871 -0.304184,0.11903 -1.587051,0.75385 -0.793526,0.39676 -1.150613,0.48934 -0.595144,0.1587 -1.058034,-0.0794 -0.383538,-0.19839 -0.436439,-0.6745 l 0.02645,-0.60837 0.06613,-0.29096 q 0.119029,-0.76708 -0.370312,-1.67963 -0.317411,-0.55547 -1.229965,-1.12416 -1.348994,-0.85965 -3.028624,-0.85965 -3.875051,0 -8.173316,3.227 -2.446705,1.82511 -4.232138,3.98085 -0.06613,0.55547 0,1.36222 l 0.07935,0.85966 q 0,0.66127 -0.31741,1.16383 -0.330636,0.5158 -0.793526,0.5158 -0.43644,0 -0.780301,-0.33064 -0.436439,-0.40999 -0.502566,-1.19029 l -0.01323,-0.0794 q -0.277734,-3.14765 -0.357086,-4.97276 -0.0529,-1.22997 0,-1.48125 0.238058,-1.62673 1.058034,-5.14469 0.767075,-3.30636 1.388671,-5.47533 0.542242,-1.90446 1.745756,-5.17114 1.124162,-3.05508 1.468023,-3.66345 0.449665,-0.80675 3.597317,-4.47019 3.107976,-3.61055 3.888277,-4.24537 0.648046,-0.52901 2.063167,-1.16384 l 0.846427,-0.38353 q 0.542243,-0.25129 0.661272,-0.34386 l 3.279907,-2.53929 3.38571,-2.57896 q 0.991907,-0.71417 1.891237,-0.85965 0.939005,-0.14548 1.401895,0.38354 0.343861,0.39676 0.317411,1.03158 -0.03968,0.71418 -0.555469,1.28287"
         id="path2352"
         style="stroke-width:0.264509" /><path
         fill="#008086"
         d="m 50.511513,138.52294 q 2.896369,-2.45993 3.38571,-2.67154 0.661271,-0.0926 1.85156,0.21161 1.203514,0.31741 1.428347,0.6745 0.145479,0.27773 1.679629,5.10501 l 0.727399,2.16897 q 0.277734,0.7274 3.875051,3.86183 0.46289,0.40999 1.190289,2.89637 l 0.31741,1.05803 0.621596,2.39381 0.846427,3.47828 q 0.277734,1.07126 0.502566,1.21674 0.886104,0.60837 2.010266,1.89124 0.211607,0.25128 0.899329,1.93091 l 1.243191,3.13443 -0.46289,1.04481 q -1.084486,-1.20352 -2.512832,-2.48638 -2.856693,-2.55251 -4.575999,-2.86992 -1.639954,-0.30419 -3.597317,0.58192 l -1.21674,0.56869 q -0.568693,0.22483 -0.846427,0.0793 -0.14548,-0.0793 -0.198382,-0.54224 l -0.02645,-0.43644 q 0.09258,-0.2116 0.09258,-0.58192 0,-0.7274 -0.436439,-1.53415 -0.370312,-0.70094 -1.481248,-1.30931 -1.454798,-0.80676 -3.319583,-0.80676 -3.756022,0 -7.750103,2.71122 -2.473155,1.67963 -4.602449,4.04698 0.145479,-5.34307 0.31741,-5.99112 0.568694,-2.31445 2.433479,-7.60462 2.486381,-7.02271 3.980855,-8.91394 0.63482,-0.79353 3.623768,-3.30636"
         id="path2354"
         style="stroke-width:0.264509" /><path
         fill="#f29600"
         d="m 63.207926,127.2681 q -3.332808,3.54441 -3.980855,4.35116 -0.423213,0.54225 -0.277734,2.56574 0.09258,1.34899 0.423214,3.13443 0.211607,1.20351 1.07126,3.25345 0.872878,2.06317 1.507699,2.84347 l 3.623768,4.23214 q 0.370312,0.48934 0.648046,2.16897 0.343861,2.06316 0.529017,2.59218 0.343862,1.00513 0.700948,1.78543 l 0.886104,1.71931 q 0.489341,0.91256 1.639953,2.30123 1.07126,1.28286 1.282867,1.36221 l 0.476116,-0.14548 q 0.343861,-0.17193 0.542242,-0.1058 0.370312,0.11903 0.489341,1.09771 l 1.097711,0.7274 -1.983815,2.59219 -0.277734,0.68772 q -1.600277,-3.61054 -2.063167,-4.12634 -1.415121,-1.62672 -2.327676,-2.23509 -0.251283,-0.29096 -1.282866,-4.33795 l -0.634821,-2.43347 -0.31741,-1.04481 -0.489341,-1.54738 q -0.29096,-0.70095 -0.674497,-1.04481 L 61.77958,145.6779 q -1.481249,-1.52093 -1.613503,-1.87801 l -0.727399,-2.14252 q -1.745756,-5.23727 -1.904462,-5.47533 -0.343861,-0.5687 -1.785433,-0.92578 -1.309317,-0.31741 -2.102843,-0.19838 -0.489341,0.0793 -3.689895,2.88314 -3.094751,2.69799 -3.663445,3.42539 -1.626728,2.06316 -4.126334,9.54876 -1.256416,3.74279 -2.195421,7.15496 -0.211607,0.87287 -0.357087,6.9169 l -0.119029,2.3409 q 0,0.30418 -0.119029,0.52901 -0.119029,0.21161 -0.264508,0.21161 -0.185156,0 -0.264509,-0.1058 -0.14548,-0.15871 -0.185156,-0.60837 l -0.171931,-2.69799 -0.145479,-2.57896 q 0.01323,-1.40189 0.767075,-5.01244 0.661271,-3.227 1.282866,-5.29017 0.925781,-3.09475 2.221873,-6.62594 1.084485,-2.90959 1.375445,-3.43861 0.409988,-0.74063 3.372484,-4.24537 2.975722,-3.53119 3.703121,-4.1131 0.60837,-0.48934 2.407028,-1.2961 0.899329,-0.40998 1.67963,-0.71417 l 5.858866,-4.82728 q 0.727398,-0.60837 1.454797,-0.8332 0.753849,-0.22484 0.991907,0.1058 0.476116,0.68772 -0.251283,1.48125"
         id="path2356"
         style="stroke-width:0.264509" /><path
         fill="#00666c"
         d="m 56.88617,139.92483 q -0.304185,-0.14547 -0.899329,-0.27773 l -0.978682,-0.14548 q -0.92578,0.63482 -3.359259,2.71121 -2.565734,2.1822 -3.0683,2.81702 -1.38867,1.75898 -3.8486,8.64943 -1.878011,5.21082 -2.473156,7.52527 l -0.07935,1.11094 q -1.005133,0.91255 -2.023491,2.02349 0.145479,-5.34307 0.31741,-5.99112 0.568694,-2.31445 2.433479,-7.60462 2.486381,-7.02271 3.980855,-8.91394 0.63482,-0.79353 3.623768,-3.30636 2.896369,-2.45993 3.38571,-2.67154 0.661271,-0.0926 1.85156,0.21161 1.203514,0.31741 1.428347,0.6745 0.145479,0.27773 1.679629,5.10501 l 0.727399,2.16897 q 0.277734,0.7274 3.875051,3.86183 0.46289,0.40999 1.190289,2.89637 l 0.31741,1.05803 0.621596,2.39381 0.846427,3.47828 q 0.277734,1.07126 0.502566,1.21674 0.886104,0.60837 2.010266,1.89124 0.211607,0.25128 0.899329,1.93091 l 1.243191,3.13443 -0.46289,1.04481 -1.150613,-1.19029 q -0.581919,-1.4548 -0.753849,-1.70608 -1.031584,-1.19029 -1.732532,-1.63995 -0.46289,-0.31741 -0.714173,-0.99191 -0.185156,-0.47612 -0.595144,-2.19542 l -0.542243,-2.2351 -0.60837,-2.31445 -0.330636,-1.11094 q -0.31741,-1.08448 -0.621595,-2.65831 l -0.238058,-1.34899 -3.689895,-3.17411 q -0.939005,-0.85965 -1.216739,-1.67963 l -1.547376,-4.74793"
         id="path2358"
         style="stroke-width:0.264509" /><path
         fill="#0d131a"
         d="m 131.31889,150.80936 q 0.44967,1.15062 1.12416,5.56791 0.64805,4.23214 0.64805,5.59436 v 0.29096 l -0.0397,5.77951 q -0.17193,1.62673 -1.37544,1.60028 -0.52902,-0.0132 -0.75385,-0.48934 -0.21161,-0.44967 -0.21161,-1.48125 0,-0.64805 -0.13225,-1.19029 -2.65831,-2.61864 -5.58113,-5.22405 -3.96763,-3.51796 -5.31663,-4.09988 -1.62672,-0.70095 -4.03375,-0.60837 -1.97059,0.0926 -2.80379,0.50257 -0.38354,0.18515 -1.87801,1.95736 l -1.15062,1.25642 q -0.39676,0.38353 -0.74062,0.42321 l -0.50257,-0.0661 -0.7803,-0.33063 q -2.01026,-0.87288 -2.93604,-1.12416 -2.15575,-0.5687 -3.65022,0.0397 -2.116071,0.85966 -4.721481,2.64509 -1.983814,1.36222 -2.658311,2.03672 -0.224833,0.25128 -1.36222,2.47315 l -2.274774,4.48342 q -0.17193,0.31741 -0.767075,0.34386 -0.423213,0 -0.661271,-0.35708 l -5.99112,-10.07778 q -0.211607,-0.34386 -0.02645,-0.70095 0.198381,-0.37031 0.595144,-0.39676 l 2.552508,-0.0661 q 0.555468,-1.62673 0.952231,-1.93091 0.224833,-0.15871 0.859653,-0.26451 l 1.229965,0.0264 2.116069,-1.4019 3.21378,-2.32767 q 2.631861,-2.01027 4.496646,-4.35117 0.330636,-0.7803 1.07126,-3.50474 0.780296,-2.88314 1.468026,-5.95144 0.63482,-2.84347 1.05803,-5.70016 0.38354,-2.60541 0.34386,-3.33281 -0.0264,-0.39676 -0.7803,-1.57383 -0.81998,-1.29609 -2.208645,-3.04185 -0.555468,-0.68772 -0.727398,-1.45479 -0.211607,-0.92578 0.264508,-1.61351 0.357087,-0.51579 0.886105,-0.60837 0.58192,-0.0926 1.28286,0.23806 0.59515,0.27774 1.09772,0.74063 l 2.15574,2.07639 2.06317,1.99704 q 0.1058,0.0926 0.92578,0.25128 l 1.08448,0.22483 q 0.38354,0.11903 3.08153,1.5077 l 2.93604,1.4548 q 1.2961,0.40999 2.64509,0.56869 l 1.05803,0.14548 q 0.60837,0.10581 0.76708,0.26451 0.92578,0.87288 3.70312,5.67371 l 3.86183,6.8111 q 1.19028,2.04994 2.93604,4.24536 l 1.58705,2.04994"
         id="path2360"
         style="stroke-width:0.264509" /><path
         fill="#f29600"
         d="m 128.19769,148.24363 1.24319,1.67963 1.01836,1.54738 q 0.43644,1.09771 1.16384,5.19759 0.7274,4.06021 0.7274,5.3034 v 2.89637 l -0.0397,2.93604 q -0.0529,0.46289 -0.17193,0.6745 -0.15871,0.27773 -0.46289,0.26451 -0.19838,-0.0132 -0.29096,-0.52902 -0.0661,-0.35709 -0.0661,-0.79353 l -0.0265,-1.17706 -0.89933,-9.74714 v -0.0529 q -1.30931,-4.84051 -5.4621,-12.12772 -3.76925,-6.59949 -6.01757,-8.83459 -0.6216,-0.63482 -5.56791,-2.288 -4.576,-1.54737 -4.86696,-1.54737 -0.81997,-0.0661 -1.6664,0.35708 -0.84643,0.43644 -1.29609,1.16384 -0.44967,0.71417 -2.40703,8.14687 -0.58192,2.26154 -1.25642,6.70529 -0.38353,2.51283 -0.50256,2.75089 -0.21161,0.39676 -3.30636,2.61863 l -1.507699,1.11094 q -0.449665,0.37031 -0.952231,1.17706 -0.264509,0.40999 -0.75385,1.33577 l -0.290959,0.54224 q -0.06613,0.0794 -0.700948,0.22484 -1.24319,0.30418 -2.010265,0.56869 -1.005133,0.34386 -2.631861,3.25346 -1.084485,1.94413 -2.274774,4.70825 l -3.53119,-5.92499 3.055074,-0.23806 0.304185,-0.85965 q 0.343862,-0.88611 0.581919,-1.05804 0.330636,-0.22483 1.110936,-0.21161 l 0.700948,0.0529 2.499607,-1.69286 3.055074,-2.08962 q 0.542243,-0.40999 2.578959,-2.38057 2.023491,-1.97059 2.129294,-2.19543 0.674501,-1.45479 2.499611,-9.44295 1.87801,-8.25267 1.73253,-9.7207 -0.0529,-0.51579 -1.48125,-2.51283 l -1.79866,-2.35412 q -0.383537,-0.47612 -0.529017,-1.09771 -0.17193,-0.66128 0.0529,-1.05804 0.224837,-0.38354 0.899327,-0.11903 0.59515,0.22483 1.21674,0.79353 l 2.14252,2.18219 1.97059,1.99704 1.12416,0.18516 1.54738,0.33064 q 0.54224,0.18515 5.63403,2.63186 l 2.30123,0.64804 q 1.75898,0.44967 1.90446,0.58192 1.25642,1.20352 5.39598,8.2659 l 4.17923,7.22108"
         id="path2362"
         style="stroke-width:0.264509" /><path
         fill="#008086"
         d="m 129.94345,156.6021 0.81998,9.12555 q -2.75089,-2.59218 -5.27695,-4.78761 -4.08666,-3.54441 -5.55468,-4.17923 -1.78544,-0.76708 -4.31149,-0.59515 -2.01027,0.13226 -3.0154,0.63482 -0.43644,0.21161 -1.85156,1.77221 -1.30932,1.42835 -1.81189,1.52093 -0.30418,0.0661 -1.19028,-0.29096 l -1.83834,-0.74063 q -2.77734,-0.97868 -4.82728,-0.14548 -2.274775,0.93901 -4.959537,2.55251 -2.261549,1.36222 -2.830243,1.90446 -0.343861,0.34386 -2.155745,3.7428 l -1.745757,3.33281 -1.811884,-2.9096 q 1.930913,-4.80083 2.14252,-5.27694 1.269642,-2.83025 2.049942,-3.09475 0.555468,-0.19839 2.195421,-0.54225 l 0.661272,-0.17193 0.396763,-0.29096 0.343861,-0.62159 0.60837,-1.4019 q 0.436439,-0.939 0.793526,-1.24319 l 0.674497,-0.42321 0.952231,-0.59515 2.367353,-1.74575 q 0.96546,-0.75385 1.12416,-1.08449 l 0.23806,-0.939 0.31741,-1.99704 0.44966,-3.14766 q 0.30419,-2.01026 0.64805,-3.31958 l 1.41512,-5.39597 q 0.63482,-2.35413 0.7803,-2.59219 0.35709,-0.55547 1.24319,-0.8861 0.80675,-0.31741 1.5077,-0.25129 0.66127,0.10581 4.81406,1.53415 4.53632,1.54738 5.03889,2.04995 2.30122,2.31445 6.05724,8.62298 4.27182,7.16818 5.54146,11.87643"
         id="path2364"
         style="stroke-width:0.264509" /><path
         fill="#00666c"
         d="m 128.60768,163.73061 -0.35709,-3.9544 q -1.24319,-4.56278 -5.4092,-11.5458 -3.65022,-6.09693 -5.81919,-8.30558 -0.64804,-0.44966 -4.54955,-1.78543 -3.49151,-1.19029 -4.64212,-1.48125 -0.39676,-0.0132 -0.87288,0.17193 -0.47612,0.17193 -0.64805,0.37032 -0.19838,0.52901 -1.63995,6.03079 l -0.42321,1.65318 q -0.42322,1.60028 -0.85966,4.80083 l -0.2116,1.53415 -0.38354,2.26155 q -0.13225,0.71417 -0.30419,1.03158 -0.23805,0.48935 -1.05803,1.17707 l -2.803791,2.11607 -1.124162,0.70094 -0.436439,0.26451 q -4.734704,4.25859 -5.316623,4.45697 -0.740624,0.60837 -2.949271,6.25563 v 0.0132 l -1.21674,-1.95737 q 1.930913,-4.80083 2.14252,-5.27694 1.269642,-2.83025 2.049942,-3.09475 0.555468,-0.19839 2.195421,-0.54225 l 0.661272,-0.17193 0.396763,-0.29096 0.343861,-0.62159 0.60837,-1.4019 q 0.436439,-0.939 0.793526,-1.24319 l 0.674497,-0.42321 0.952231,-0.59515 2.367353,-1.74575 q 0.96546,-0.75385 1.12416,-1.08449 l 0.23806,-0.939 0.31741,-1.99704 0.44966,-3.14766 q 0.30419,-2.01026 0.64805,-3.31958 l 1.41512,-5.39597 q 0.63482,-2.35413 0.7803,-2.59219 0.35709,-0.55547 1.24319,-0.8861 0.80675,-0.31741 1.5077,-0.25129 0.66127,0.10581 4.81406,1.53415 4.53632,1.54738 5.03889,2.04995 2.30122,2.31445 6.05724,8.62298 4.27182,7.16818 5.54146,11.87643 l 0.81998,9.12555 -2.15575,-1.99704"
         id="path2366"
         style="stroke-width:0.264509" /><path
         fill="#0d131a"
         d="m 47.985456,166.44182 -0.264509,-0.0529 -0.46289,-0.33063 q -0.46289,-0.52902 -0.396763,-1.30932 0.03968,-0.52902 0.965456,-1.73253 0.767075,-1.00514 1.150613,-1.32255 l 0.105803,-0.0926 -0.529017,-1.44158 -0.07935,-0.1587 q -0.185156,-0.38354 -0.211606,-0.6745 -0.02645,-0.37031 0.145479,-0.8332 0.317411,-0.7803 1.084486,-1.09771 0.529017,-0.21161 1.507699,-0.18516 l 1.018358,0.11903 q 0.449664,0.18516 1.468023,1.62673 l 0.224832,0.0926 0.290959,0.0794 0.978682,-0.46289 q 0.674497,-0.50257 0.991908,-0.6216 0.423213,-0.1587 0.952231,-0.0132 0.727398,0.18516 1.24319,1.38867 0.449665,1.07126 0.31741,1.69285 -0.0529,0.27774 -0.357086,0.91256 l -0.595145,1.16384 -0.145479,0.26451 0.03968,0.30418 q 2.658311,2.3938 3.465063,2.1822 l 1.031583,-0.25129 q 1.044809,-0.26451 1.983815,-0.66127 1.547375,-0.64804 2.645086,-1.29609 0.31741,-0.8332 0.529017,-1.15061 0.542243,-0.76708 1.587052,-1.21674 0.886104,-0.38354 2.883144,-0.42322 1.177063,-0.0265 2.089618,0.0397 l 0.978682,0.0926 -3.385711,7.27399 -0.502566,-0.0926 -2.287999,-0.74063 -1.5077,0.75385 -2.116068,1.01836 -0.89933,0.47612 -0.767075,0.46289 q -1.256416,0.66127 -1.983814,0.72739 -1.666404,0.11903 -4.033757,-1.29609 -1.468022,-0.8861 -3.015398,-2.22187 -0.489341,0.27773 -0.886104,0.29096 -0.555468,0.0264 -1.216739,-0.35709 -0.383538,-0.2116 -0.846428,-0.81997 l -0.595144,-0.88611 -0.31741,0.64805 -0.224833,0.23806 -2.049941,-0.10581"
         id="path2368"
         style="stroke-width:0.264509" /><path
         fill="#f29600"
         d="m 48.011906,165.7541 q -0.158705,0 -0.304185,-0.11903 -0.304184,-0.23806 -0.264508,-0.79352 0.02645,-0.39677 0.290959,-0.81998 l 0.674497,-0.85965 0.846428,-0.80675 0.529017,-0.47612 q 0.14548,-0.22483 -0.60837,-1.98381 -0.343861,-0.79353 -0.343861,-1.05804 -0.01322,-0.62159 0.859653,-0.97868 l 1.21674,-0.0661 0.886104,0.14548 0.555468,0.63482 0.581919,0.7803 q 0.264508,0.37031 0.939005,0.42322 l 1.256416,-0.60837 q 0.449665,-0.34386 0.7803,-0.40999 l 0.740625,0.0661 q 0.409988,0.1058 0.793525,1.03158 0.357087,0.87288 0.277734,1.25641 -0.0529,0.29096 -0.436439,1.05804 l -0.502566,0.99191 q -0.185156,0.37031 0.0529,0.97868 l 1.679629,1.33577 q 1.864786,1.29609 2.803791,1.04481 l 1.229966,-0.42322 1.85156,-0.71417 2.724438,-1.15061 q 0.06613,-0.35709 0.357087,-0.81998 0.595144,-0.92578 1.798659,-1.44157 0.806751,-0.34386 2.645086,-0.35709 l 1.666404,0.0529 -2.75089,5.925 -1.944138,-1.01836 q -2.724439,1.41512 -4.337941,2.07639 -0.581919,0.25128 -1.99704,0.97868 -0.92578,0.48934 -1.362219,0.51579 -1.507699,0.11903 -3.795699,-1.26964 -1.401896,-0.85965 -2.856693,-2.11607 -0.0529,-0.0397 0.132254,-0.37031 l 0.198382,-0.33063 -0.700948,0.48934 q -0.185156,0.2116 -0.529017,0.31741 -0.674497,0.22483 -1.481248,-0.22484 -0.687723,-0.39676 -1.150613,-1.13738 l -0.31741,-0.66127 -0.939006,1.00513 -1.745757,-0.0926"
         id="path2370"
         style="stroke-width:0.264509" /><path
         fill="#0d131a"
         d="m 56.621662,161.35003 -1.07126,0.64805 q -0.899329,0.43644 -1.243191,0.44966 -0.211607,0 -0.357086,-0.11903 -0.251283,-0.2645 -0.06613,-1.34899 0.17193,-1.00513 0.409988,-1.4019 0.31741,-0.48934 0.859653,-0.71417 l 1.018358,-0.0397 q 0.46289,0.17193 0.674497,0.63482 0.185156,0.39676 0.105803,0.85965 l -0.02645,0.18515 q -0.07935,0.59515 -0.304185,0.84643"
         id="path2372"
         style="stroke-width:0.264509" /><path
         fill="#0d131a"
         d="m 56.132321,158.92978 -0.939006,0.0529 q -0.502566,0.21161 -0.793526,0.66127 -0.224832,0.35709 -0.396763,1.33577 -0.17193,1.04481 0.03968,1.25642 0.09258,0.0926 0.251283,0.0926 0.31741,-0.0132 1.203514,-0.43643 0.859653,-0.42322 1.031584,-0.6216 0.211607,-0.23806 0.277734,-0.7803 l 0.02645,-0.18516 q 0.06613,-0.43644 -0.09258,-0.80675 -0.185156,-0.40999 -0.60837,-0.56869 m -1.944139,0.58192 q 0.343862,-0.52902 0.925781,-0.75385 l 1.09771,-0.0529 q 0.43644,0.17193 0.674497,0.56869 0.211607,0.35709 0.211607,0.79353 l -0.0529,0.46289 q -0.07935,0.62159 -0.330635,0.89932 -0.198382,0.23806 -1.110936,0.6745 -0.939006,0.44967 -1.296093,0.46289 -0.264508,0.0132 -0.436439,-0.1587 -0.304185,-0.30419 -0.105803,-1.4548 0.17193,-1.01836 0.423213,-1.44157"
         id="path2374"
         style="stroke-width:0.264509" /><path
         fill="#ffffff"
         d="m 55.947165,160.66231 q -0.238058,0.29096 -1.772208,1.4019 -0.119029,-0.11903 -0.01322,-1.01836 0.119028,-0.91256 0.31741,-1.28287 0.224832,-0.38354 0.634821,-0.58192 0.423213,-0.21161 0.7803,-0.0794 0.383537,0.13225 0.529017,0.52902 -0.03968,0.37031 -0.17193,0.62159 l -0.304185,0.40999"
         id="path2376"
         style="stroke-width:0.264509" /><path
         fill="#dbdcdc"
         d="m 56.264575,161.04585 q -0.14548,0.18515 -1.044809,0.64804 -0.939006,0.47612 -1.044809,0.37032 1.53415,-1.11094 1.772208,-1.4019 l 0.304185,-0.40999 q 0.132254,-0.25128 0.17193,-0.62159 0.09258,0.25128 0.06613,0.54224 l -0.06613,0.50257 -0.158705,0.37031"
         id="path2378"
         style="stroke-width:0.264509" /><path
         fill="#0d131a"
         d="m 47.813525,164.69607 q 0.264509,-0.22484 0.753849,-0.31741 0.515792,-0.0926 0.89933,0.2116 0.264508,0.21161 0.370312,0.52902 l 0.687722,1.08449 q 0.14548,0.1587 0.529017,0.29095 l 0.409989,0.11903 -0.185156,0.38354 q -0.29096,0.59515 -1.692855,0.51579 l -1.07126,-0.14548 q -0.555468,-0.17193 -0.886104,-0.66127 -0.224832,-0.33063 -0.277734,-0.75385 -0.0529,-0.40999 0.09258,-0.71417 l 0.03968,-0.0661 q 0.132254,-0.30418 0.330636,-0.47611"
         id="path2380"
         style="stroke-width:0.264509" /><path
         fill="#0d131a"
         d="m 47.853201,164.74897 q -0.17193,0.14548 -0.31741,0.43644 l -0.03968,0.0794 q -0.132255,0.29096 -0.09258,0.68772 0.0529,0.40999 0.264508,0.7274 0.330636,0.46289 0.859653,0.6216 l 1.058035,0.14548 q 1.375444,0.0794 1.626728,-0.47612 l 0.17193,-0.31741 -0.343861,-0.1058 q -0.423214,-0.14548 -0.568694,-0.30419 -0.185156,-0.21161 -0.674496,-1.05803 l -0.01323,-0.0132 -0.03968,-0.0661 q -0.105804,-0.30418 -0.357087,-0.50256 -0.343861,-0.26451 -0.819977,-0.17193 -0.46289,0.0926 -0.714173,0.31741 m -0.277734,1.99704 q -0.304185,-0.44967 -0.304185,-0.97868 0,-0.31741 0.119029,-0.55547 l 0.03968,-0.0661 q 0.158706,-0.33063 0.343862,-0.48934 0.277734,-0.25128 0.7803,-0.34386 0.502566,-0.0926 0.872878,0.18515 0.277735,0.19839 0.423214,0.54225 l 0.714173,1.12416 q 0.132255,0.1587 0.515792,0.26451 l 0.396763,0.13225 0.03968,0.0265 0.01323,0.0265 -0.198382,0.40999 q -0.304184,0.6216 -1.745756,0.54224 l -1.084486,-0.14548 q -0.581919,-0.18515 -0.92578,-0.67449"
         id="path2382"
         style="stroke-width:0.264509" /><path
         fill="#ffffff"
         d="m 47.787074,165.39701 0.211607,-0.33063 q 0.198381,-0.18516 0.595144,-0.25128 0.409989,-0.0794 0.648046,0.2116 0.132255,0.13226 0.171931,0.29096 l 0.29096,0.48934 0.449664,0.66127 q 0.211607,0.23806 0.687723,0.38354 -2.380578,0.34386 -3.055075,-1.4548"
         id="path2384"
         style="stroke-width:0.264509" /><path
         fill="#dbdcdc"
         d="m 47.906103,166.52118 q -0.171931,-0.25129 -0.211607,-0.5687 -0.02645,-0.29096 0.06613,-0.48934 l 0.02645,-0.0661 q 0.674497,1.79866 3.055075,1.4548 -0.03968,0.0926 -0.238058,0.17193 l -1.07126,0.11903 -0.92578,-0.1058 q -0.436439,-0.13226 -0.700948,-0.51579"
         id="path2386"
         style="stroke-width:0.264509" /><path
         fill="#0d131a"
         d="m 50.855374,158.79752 q 0.409988,0.46289 0.343861,1.07126 -0.03968,0.54225 -0.330636,0.76708 l -0.568693,0.52902 -0.568694,0.63482 q -0.158705,0.25128 -0.185156,0.8332 l -0.09258,0.34386 -0.383537,-0.0132 q -0.343861,-0.1058 -0.661272,-0.40998 -0.63482,-0.6216 -0.63482,-1.67963 0,-1.00514 0.859653,-2.16897 0.105803,-0.14548 0.436439,-0.27774 0.304185,-0.1058 0.568693,-0.11903 0.740624,-0.0397 1.21674,0.48934"
         id="path2388"
         style="stroke-width:0.264509" /><path
         fill="#0d131a"
         d="m 48.527698,158.63882 q 0.132254,-0.18516 0.502567,-0.31741 l 0.595144,-0.13226 q 0.819977,-0.0397 1.322543,0.52902 0.423214,0.48934 0.383537,1.16384 -0.06613,0.58192 -0.383537,0.85965 l -0.555468,0.50257 q -0.449665,0.44966 -0.555468,0.62159 -0.14548,0.21161 -0.171931,0.79353 l -0.09258,0.34386 -0.03968,0.0661 -0.46289,0.0132 h -0.02645 q -0.330636,-0.0661 -0.714173,-0.44966 -0.674497,-0.64805 -0.674497,-1.75898 0,-1.01836 0.872878,-2.2351 m 1.692855,2.4467 0.568694,-0.54224 q 0.251283,-0.18515 0.290959,-0.68772 l 0.01323,-0.1058 q 0,-0.47612 -0.330636,-0.87288 -0.409988,-0.46289 -1.124162,-0.44967 l -0.515791,0.11903 -0.396763,0.23806 q -0.833202,1.13739 -0.833202,2.08962 0,0.97868 0.568693,1.5606 0.304185,0.31741 0.634821,0.40999 l 0.264508,0.0132 0.06613,-0.23806 q 0,-0.56869 0.198382,-0.8861 0.119029,-0.18516 0.595144,-0.64805"
         id="path2390"
         style="stroke-width:0.264509" /><path
         fill="#ffffff"
         d="m 50.326357,160.17297 -0.806752,0.7274 q -0.529017,0.67449 -0.251283,1.60027 v 0.0661 q -0.251283,-0.0794 -0.515791,-0.33063 -0.515792,-0.5158 -0.515792,-1.41512 0,-0.52902 0.277734,-1.16384 0.211607,-0.47612 0.476115,-0.81998 0.171931,-0.21161 0.740624,-0.21161 0.634821,0.0132 0.939006,0.37032 l 0.132254,0.17193 q -0.132254,0.66127 -0.476115,1.00513"
         id="path2392"
         style="stroke-width:0.264509" /><path
         fill="#dbdcdc"
         d="m 50.736345,160.30522 q -0.952231,0.71418 -1.229965,1.12416 -0.185156,0.30419 -0.238058,1.07126 -0.277734,-0.92578 0.251283,-1.60027 l 0.806752,-0.7274 q 0.343861,-0.34386 0.476115,-1.00513 0.185156,0.33063 0.119029,0.71417 -0.0529,0.31741 -0.185156,0.42321"
         id="path2394"
         style="stroke-width:0.264509" /><path
         fill="#d18200"
         d="m 50.696669,163.32062 q 0,-0.89933 0.674497,-1.62673 0.687722,-0.7274 1.560601,-0.75385 -0.991908,1.2961 -0.793526,2.1822 0.132254,0.59514 1.07126,1.00513 0.7803,0.34386 1.53415,0.37031 l -0.581919,0.66128 q -0.343862,0.29096 -0.806752,0.29096 -0.965456,0 -1.785433,-0.60837 -0.872878,-0.66128 -0.872878,-1.52093"
         id="path2396"
         style="stroke-width:0.264509" /><path
         fill="#0d131a"
         d="m 52.640807,161.35003 q 0.634821,-1.00513 0.740624,-0.89933 l -0.542242,0.93901 q -0.542243,1.04481 -0.409989,1.6664 0.119029,0.47612 0.952231,0.88611 0.780301,0.38353 1.441572,0.38353 0.46289,0 0.991907,-0.22483 l 0.43644,-0.19838 q -0.595145,0.59514 -1.454798,0.59514 -0.740624,0 -1.560601,-0.35708 -0.965456,-0.40999 -1.09771,-1.01836 -0.158705,-0.70095 0.502566,-1.77221"
         id="path2398"
         style="stroke-width:0.264509" /><path
         fill="#0d131a"
         d="m 67.373937,175.23673 0.727398,-0.34386 8.570079,19.60009 -1.07126,0.13226 q -0.965456,0.11902 -1.653178,0.33063 -0.304185,0.1058 -1.137387,0.7274 l -0.859653,0.56869 q 0.396763,0.55547 0.621595,1.5606 0.211607,0.93901 0.105803,1.28287 -0.132254,0.46289 -0.489341,0.80675 -0.330635,0.31741 -0.727398,0.43644 -1.494474,0.31741 -2.380578,0.68772 -0.568693,0.22484 -1.70608,0.97869 l -1.097711,0.7803 -0.436439,0.42321 q -0.330636,0.22483 -0.806752,0.30418 -0.396762,0.0661 -1.322543,-0.22483 l -0.978681,0.22483 -1.044809,0.26451 q -0.700948,0.23806 -1.21674,0.47612 l -0.515792,0.25128 q -0.396763,0.18516 -0.581919,0.14548 -0.277734,-0.0661 -0.211607,-0.56869 0.06613,-0.47612 0.357087,-1.12416 l 0.277734,-0.55547 -2.407028,0.11903 q -0.449665,0.0794 -0.859653,0.23806 l -0.581919,0.25128 -0.489341,0.0397 q -0.132255,-0.0794 -0.09258,-0.27773 0.0529,-0.42321 0.264508,-0.91255 0.409989,-0.99191 1.296093,-1.81189 l -1.031584,-0.0265 q -0.740624,0.0132 -1.190289,0.21161 -0.674497,0.31741 -0.396763,-0.58192 0.224833,-0.7274 1.36222,-1.6135 0.63482,-0.47612 1.375444,-0.83321 0.621596,-0.30418 1.044809,-0.39676 l 0.132255,-0.0265 0.304185,-0.0264 1.639953,-1.03158 q 0.687722,-0.47612 1.335769,-1.15062 l 0.608369,-0.74062 0.132255,-0.60837 -0.780301,-0.58192 q -0.621595,-0.48934 -0.978682,-0.96546 -1.375444,-1.85156 -1.587051,-3.25345 -0.383538,-2.63186 1.785433,-6.33498 1.454797,-2.49961 4.589224,-5.13147 2.512832,-1.90446 2.102844,-1.71931"
         id="path2400"
         style="stroke-width:0.264509" /><path
         fill="#f29600"
         d="m 65.548827,177.39248 q 0.780301,-0.64805 1.53415,-1.09771 l 0.60837,-0.33064 7.803004,17.86756 q -1.018358,0.11903 -1.785433,0.35709 -0.409988,0.13225 -1.044809,0.67449 -0.714173,0.60837 -1.097711,0.79353 -0.224832,0.11903 -0.700948,0.43644 l -0.423213,0.29096 0.370312,0.0529 q 0.383537,0.0529 0.515791,0.13225 0.158706,0.10581 0.330636,0.68773 l 0.238058,1.09771 q -0.264509,0.42321 -1.190289,0.80675 -0.661271,0.26451 -1.401895,0.43644 -0.687723,0.1587 -1.481249,0.46289 -0.939005,0.34386 -1.441572,0.68772 l -0.991907,0.6216 q -0.476115,0.2645 -0.846427,0.30418 l -0.661272,0.99191 q -1.163838,-0.38354 -2.658312,-1.15062 -1.600277,-0.8332 -2.446704,-1.54737 -0.965457,-0.80675 -1.110936,-1.52093 l 0.0529,-0.55546 2.988948,-1.86479 q 0.7803,-0.54224 1.428346,-1.26964 0.502567,-0.56869 0.634821,-0.8861 l 0.0529,-0.37032 0.515791,0.15871 1.401896,0.1058 -0.727399,-0.1587 -0.568693,-0.21161 q -0.211607,-0.0661 -0.542243,-0.26451 l -0.304185,-0.19838 q -0.449664,-0.29096 -1.296092,-1.42835 -1.058034,-1.38867 -1.282867,-3.10797 -0.383537,-2.73767 1.36222,-5.925 1.679629,-3.05507 4.16601,-5.07856"
         id="path2402"
         style="stroke-width:0.264509" /><path
         fill="#d18200"
         d="m 70.706745,199.16154 q 0.92578,-0.38354 1.190289,-0.80675 0.06613,0.55546 0.02645,0.67449 -0.158705,0.40999 -0.60837,0.66128 l -0.740624,0.27773 -1.587052,0.48934 q -0.277734,0.0529 -1.38867,0.7274 l -1.362219,0.84643 -0.542243,0.46289 q -0.343861,0.29096 -0.819977,0.37031 -0.264508,0.0397 -0.991907,-0.19838 l 0.661272,-0.99191 q 0.370312,-0.0397 0.846427,-0.30418 l 0.991907,-0.6216 q 0.502567,-0.34386 1.441572,-0.68772 0.793526,-0.30419 1.481249,-0.46289 0.740624,-0.17193 1.401895,-0.43644"
         id="path2404"
         style="stroke-width:0.264509" /><path
         fill="#0d131a"
         d="m 63.578238,194.17555 q -0.264509,-0.17193 -0.224832,-0.22483 l 0.264508,0.0794 0.555468,0.18516 0.727399,0.0661 0.409988,0.0529 -0.396762,0.1058 -0.727399,-0.0264 q -0.304185,-0.0529 -0.60837,-0.23806"
         id="path2406"
         style="stroke-width:0.264509" /><path
         fill="#d18200"
         d="m 67.651671,192.54882 q -1.520925,-2.23509 -1.520925,-4.98598 0,-2.15575 0.965457,-4.04699 0.939005,-1.82511 2.565733,-3.01539 l 5.832415,13.33123 q -1.018358,0.11903 -1.785433,0.35709 -0.409988,0.13225 -1.044809,0.67449 -0.714173,0.60837 -1.097711,0.79353 l -0.01323,0.0132 q -2.407029,-0.92578 -3.901502,-3.1212"
         id="path2408"
         style="stroke-width:0.264509" /><path
         fill="#ffffff"
         d="m 58.473222,197.29675 q 0.185156,-0.0529 0.31741,0.15871 0.14548,0.22483 0.198382,0.67449 0.06613,0.64805 -0.132255,1.53415 h -2.843467 q -0.449665,0.0265 -1.07126,0.23806 l -0.529017,0.21161 q -0.0529,-0.15871 0.09258,-0.46289 0.277734,-0.59515 1.216739,-1.29609 0.634821,-0.47612 1.666405,-0.7803 l 1.084485,-0.27774"
         id="path2410"
         style="stroke-width:0.264509" /><path
         fill="#dbdcdc"
         d="m 57.203581,199.10864 q 1.468022,-0.10581 1.587051,-0.40999 h 0.01323 l -0.09258,0.7803 -2.711214,0.0132 q -0.423213,0.0132 -0.952231,0.18516 0.833203,-0.46289 2.155746,-0.56869"
         id="path2412"
         style="stroke-width:0.264509" /><path
         fill="#0d131a"
         d="m 58.261615,197.1645 0.158705,-0.0397 0.357087,0.0529 q 0.31741,0.21161 0.396763,0.93901 v 0.59514 l -0.370312,-0.0132 v -0.54224 q -0.0529,-0.52902 -0.224833,-0.6745 -0.238057,-0.15871 -1.177063,0.19838 -0.92578,0.34386 -1.573826,0.81998 -0.991907,0.74062 -1.203514,1.32254 l 0.423213,-0.14548 0.264509,0.30418 -0.833202,0.30419 h -0.14548 q -0.09258,-0.0397 -0.105803,-0.11903 -0.03968,-0.26451 0.105803,-0.56869 0.29096,-0.64805 1.282867,-1.38867 0.872878,-0.64805 2.645086,-1.04481"
         id="path2414"
         style="stroke-width:0.264509" /><path
         fill="#0d131a"
         d="m 56.013292,199.84926 -0.700948,0.13225 -0.264509,-0.30418 q 0.529018,-0.17193 0.952231,-0.18516 l 2.711214,-0.0132 0.09258,-0.7803 0.370312,0.0132 -0.132255,0.99191 q -0.03968,0.14548 -0.185156,0.14548 h -2.843467"
         id="path2416"
         style="stroke-width:0.264509" /><path
         fill="#ffffff"
         d="m 58.327742,201.40986 q -1.481248,0.39676 -2.340901,1.11094 l 0.224832,0.0794 -0.608369,0.26451 q -0.02645,-0.26451 0.132254,-0.6745 0.290959,-0.8332 1.150612,-1.60028 0.595145,-0.51579 1.67963,-1.19028 l 1.137387,-0.66128 q 0.198381,-0.11902 0.674497,0.33064 0.529017,0.47612 0.700948,1.07126 l 0.06613,0.25128 -0.542243,0.43644 q -0.357086,0.21161 -0.648046,0.26451 l -1.626728,0.31741"
         id="path2418"
         style="stroke-width:0.264509" /><path
         fill="#dbdcdc"
         d="m 57.520991,202.16371 q -0.383538,0.0661 -1.309318,0.43644 l -0.224832,-0.0794 q 0.859653,-0.71418 2.340901,-1.11094 l 1.626728,-0.31741 q 0.29096,-0.0529 0.648046,-0.26451 l 0.542243,-0.43644 q 0.17193,0.7803 0.06613,1.48125 l -3.689895,0.29096"
         id="path2420"
         style="stroke-width:0.264509" /><path
         fill="#0d131a"
         d="m 55.841361,202.50757 0.14548,-0.0132 q 1.084485,-0.44967 1.507699,-0.5158 l 3.544415,-0.27773 q 0.07935,-0.81998 -0.132254,-1.5077 -0.14548,-0.50256 -0.581919,-0.939 -0.370312,-0.35709 -0.542242,-0.35709 l -0.06613,0.0397 q -1.904462,1.07126 -2.711213,1.78543 -0.886104,0.7803 -1.137387,1.63995 l -0.02645,0.14548 m 0.568694,0.21161 q -0.687723,0.27773 -0.727399,0.31741 l -0.171931,-0.0132 -0.09258,-0.14548 q -0.01322,-0.30418 0.14548,-0.75385 0.304185,-0.87287 1.203514,-1.6664 0.846428,-0.76707 2.764115,-1.83833 l 0.07935,-0.0397 q 0.132254,-0.0794 0.383537,0 0.317411,0.13225 0.700948,0.56869 0.436439,0.47612 0.621595,1.00514 0.251284,0.71417 0.198382,1.28286 l -0.119029,0.46289 q -0.02645,0.13226 -0.171931,0.15871 l -3.663444,0.27773 q -0.370312,0.0529 -1.150612,0.38354"
         id="path2422"
         style="stroke-width:0.264509" /><path
         fill="#ffffff"
         d="m 62.282146,200.48408 q 0.158705,-0.13225 0.859653,0.21161 0.740624,0.35708 1.031583,0.7803 l 0.0529,0.0926 -0.224832,-0.11903 q 0,0.47611 -0.476116,0.70095 l -1.573826,0.66127 q -1.441572,0.64804 -1.944138,1.13738 l 0.119029,0.10581 -0.476116,0.2116 q -0.105803,-0.17193 -0.06613,-0.48934 0.0529,-0.63482 0.714173,-1.30931 1.547376,-1.62673 1.983815,-1.98382"
         id="path2424"
         style="stroke-width:0.264509" /><path
         fill="#dbdcdc"
         d="m 64.490793,202.56047 -2.592185,0.83321 q -0.648046,0.2116 -1.772207,0.66127 l -0.119029,-0.10581 q 0.502566,-0.48934 1.944138,-1.13738 l 1.573826,-0.66127 q 0.476116,-0.22484 0.476116,-0.70095 l 0.224832,0.11903 q 0.343861,0.56869 0.264509,0.9919"
         id="path2426"
         style="stroke-width:0.264509" /><path
         fill="#0d131a"
         d="m 64.014677,201.58179 q -0.238057,-0.35708 -0.872878,-0.68772 -0.555468,-0.29096 -0.767075,-0.26451 l -1.957364,1.97059 q -0.60837,0.6216 -0.661271,1.19029 -0.02645,0.22483 0.224832,0.13225 l 1.85156,-0.70094 1.507699,-0.46289 0.912555,-0.34387 q 0.132254,-0.31741 -0.238058,-0.8332 m -1.85156,-1.24319 q 0.105803,-0.0794 0.343861,-0.0661 0.396763,0.0529 0.952231,0.37032 0.595145,0.34386 0.859653,0.7274 0.357087,0.52901 0.396763,0.97868 0.03968,0.30418 -0.07935,0.44966 -0.03968,0.0661 -0.29096,0.10581 l -0.899329,0.2116 -1.494474,0.44967 q -0.753849,0.25128 -1.560601,0.58192 l -0.661271,0.27773 q -0.14548,0.0661 -0.238058,-0.0661 -0.119029,-0.22483 -0.09258,-0.58192 0.03968,-0.70094 0.767075,-1.44157 1.666404,-1.7193 1.99704,-1.99704"
         id="path2428"
         style="stroke-width:0.264509" /><path
         fill="#0d131a"
         d="m 82.3848,139.58097 q 0.277734,0.0661 0.449665,0.29096 0.171931,0.22484 0.158705,0.5158 l -0.158705,4.27181 q -0.119029,4.50987 0.02645,5.89854 0.185156,1.66641 1.058034,4.39084 0.939006,2.9096 2.023491,4.86696 0.555468,0.99191 2.393803,3.83538 l 3.160878,5.02566 q 1.745757,2.92282 2.433479,4.65535 1.653179,4.19246 2.340901,6.90368 1.256416,4.89341 0.75385,8.6362 -0.555468,4.07344 -3.38571,6.37466 -2.777341,2.27477 -7.366565,2.48638 -5.501779,0.25128 -9.998426,-1.65318 -5.911767,-2.48638 -9.390055,-8.43782 -3.200554,-5.48856 -1.732532,-12.3261 1.07126,-4.98599 4.708254,-10.81841 3.227005,-5.19759 3.914727,-14.30991 0.211607,-2.98895 -0.674497,-7.71043 l -0.939006,-4.17923 q -0.02645,-0.17193 0.211607,-0.35709 l 0.409989,-0.29096 q 0.31741,-0.30418 0.753849,-0.19838 l 8.847813,2.12929"
         id="path2430"
         style="stroke-width:0.264509" /><path
         fill="#ddd583"
         d="m 68.471647,188.66055 q 4.655352,3.88827 9.879397,4.88018 5.23727,0.99191 9.085871,-1.33577 0.767075,2.19542 1.904462,3.14765 0.529017,0.46289 1.375444,0.84643 -1.944138,0.80675 -4.443744,0.92578 -4.880184,0.21161 -8.900715,-1.29609 -5.475328,-2.06317 -8.900715,-7.16818"
         id="path2432"
         style="stroke-width:0.264509" /><path
         fill="#fff697"
         d="m 66.368804,173.72904 q 1.190289,-3.38571 3.028624,-5.40921 2.552508,-2.80379 6.004345,-2.5525 4.13956,0.31741 7.353339,6.37465 2.869919,5.4092 3.240231,11.41355 0.343861,5.55468 1.441572,8.64943 -3.848601,2.32768 -9.085871,1.33577 -5.224045,-0.99191 -9.879397,-4.88018 l -0.740624,-1.17707 q -3.504739,-5.99112 -1.362219,-13.75444"
         id="path2434"
         style="stroke-width:0.264509" /><path
         fill="#d18200"
         d="m 86.603713,166.77246 q 0,-1.54738 0.965456,-2.83024 3.517965,5.44887 4.787606,7.92203 h -0.0529 q -2.367352,0 -4.033756,-1.49447 -1.666404,-1.48125 -1.666404,-3.59732"
         id="path2436"
         style="stroke-width:0.264509" /><path
         fill="#f29600"
         d="m 82.186419,140.3745 -0.01323,0.62159 -0.0529,5.10502 q 0,2.63186 0.09258,4.00731 l 0.03968,0.44966 q 0.198381,1.90446 1.018358,4.66858 0.899329,3.04185 1.970589,4.97276 l 3.967629,6.30853 q 3.0683,4.84051 3.96763,7.11528 1.666404,4.23214 2.367352,6.99625 1.163838,4.61568 0.687722,8.14687 -0.343861,2.55251 -1.639953,4.39084 -1.229965,1.75898 -3.266682,2.76412 -1.044809,-0.39677 -1.679629,-0.93901 -1.269642,-1.08448 -1.957364,-3.74279 -0.634821,-2.52606 -0.92578,-7.23432 -0.171931,-2.88314 -0.978682,-6.11014 -0.859653,-3.43862 -2.129294,-5.91177 -1.388671,-2.71121 -3.227005,-4.5231 -2.354127,-2.31445 -4.89341,-2.49961 -4.430519,-0.33063 -7.6972,4.70826 1.044809,-2.3409 2.512832,-4.70826 3.359259,-5.36952 4.033756,-14.40249 0.119029,-1.77221 -0.238058,-4.80083 -0.383537,-3.18733 -1.018358,-5.23727 l 0.224832,-2.22187 v -0.0529 l 8.834588,2.12929"
         id="path2438"
         style="stroke-width:0.264509" /><path
         fill="#d18200"
         d="m 82.186419,140.3745 -0.01323,0.62159 -0.0529,5.10502 q 0,2.63186 0.09258,4.00731 l 0.03968,0.44966 0.264509,1.69286 q -2.407029,0.64804 -4.695028,-0.95223 -1.904462,-1.33577 -3.53119,-4.09989 -0.330636,-3.98085 -1.163838,-6.67884 l 0.224832,-2.22187 v -0.0529 l 8.834588,2.12929"
         id="path2440"
         style="stroke-width:0.264509" /><path
         fill="#0d131a"
         d="m 96.840196,177.51151 q 2.049942,2.3409 3.398934,5.05211 1.79866,3.58409 1.79866,7.60463 0,2.07639 -0.96546,4.48342 -0.47611,1.21674 -0.96545,2.04994 -0.10581,0.63482 -0.10581,1.28286 1.75899,1.349 2.31445,2.06317 l 0.60837,0.74063 0.44967,0.52901 q 0.60837,0.35709 0.79352,0.76708 0.17193,0.40999 0.14548,0.97868 l 0.83321,1.52092 q 0.46289,1.03159 0.37031,1.97059 -0.0529,0.50257 -0.23806,0.81998 -0.23806,0.52902 -0.50257,0.55547 l -0.29096,-0.21161 -0.17193,-0.22483 q -0.66127,-0.68772 -0.92578,-0.81998 l -0.84642,-0.31741 -1.01836,-0.35708 -0.97868,0.0529 v 0.60837 q -0.0264,0.71417 -0.19839,1.19029 -0.19838,0.56869 -0.502561,0.97868 -0.304185,0.42321 -0.489341,0.37031 -0.09258,-0.0132 -0.409989,-0.51579 -0.251283,-0.39676 -0.555468,-0.68772 l -1.084485,-0.71418 -1.07126,-0.59514 -0.568694,-0.19838 -0.819976,0.0132 q -0.211607,0.84643 -0.859653,1.95737 -0.343861,0.66127 -0.502567,0.64804 -0.09258,-0.0132 -0.330635,-0.33063 l -0.211607,-0.30419 q -0.436439,-0.71417 -0.700948,-0.99191 l -0.793526,-0.70094 -0.92578,-0.80676 -0.60837,-0.2116 -0.423214,-0.31741 q -0.224832,-0.19838 -0.31741,-0.47612 -0.06613,-0.19838 -0.09258,-0.55547 -0.105803,-2.24832 1.560601,-4.97276 l -0.07935,-1.03158 q -1.85156,-0.91256 -3.517964,-2.9625 -1.401896,-1.7193 -1.772208,-4.41729 l -0.105803,-2.36735 q 0.07935,-2.15575 1.5606,-4.28504 0.872879,-1.26964 1.957364,-2.1822 l 5.594357,-6.9169 -0.211607,-1.30932 0.634821,1.28287 2.14252,2.26155"
         id="path2442"
         style="stroke-width:0.264509" /><path
         fill="#0d131a"
         d="m 98.493375,154.49926 0.0529,-0.29096 q 0.09258,-0.87288 0.687723,-1.38867 l 0.07935,-0.0661 q 0.370312,-0.37031 0.952232,-0.55547 0.80675,-0.2645 1.42835,0.10581 0.7803,0.44966 1.22996,1.52092 0.48934,1.17707 0,1.91769 l -0.37031,0.70095 q -0.22483,0.46289 -0.25128,0.62159 0.0397,0.15871 0.34386,0.54225 l 0.47612,0.55546 1.20351,-0.22483 q 0.74062,-0.0529 1.07126,0.44967 0.17193,0.2645 0.29096,1.67963 0.11903,1.42834 -0.0397,1.74575 -0.1058,0.21161 -0.35708,0.39677 l -0.6216,0.40998 -0.54224,0.21161 q -0.35709,0.11903 -0.42322,0.21161 -0.43643,0.47611 -1.28286,1.89123 -0.21161,0.35709 -0.74063,0.55547 l -0.81997,0.18516 q -1.005139,4.04698 -1.798665,5.76629 -0.621595,1.36222 -1.454797,1.90446 -0.740624,0.47611 -1.82511,0.50256 -0.965456,0.0265 -1.520924,-0.27773 -0.171931,-0.0926 -1.600277,-1.60028 l -1.67963,-1.73253 -0.912555,-0.66127 -0.952231,-0.6216 q -0.542242,-0.37031 -1.296092,-0.71417 l -0.648046,-0.26451 -0.502566,-0.0397 -0.568694,0.1058 -0.304185,0.0926 0.581919,-0.40999 q -0.793526,-0.1058 -0.806751,-0.23806 -0.01323,-0.0794 0.198381,-0.1058 h 0.224833 l -3.941178,-6.0837 q -0.449665,0.21161 -0.515792,0 -0.03968,-0.13225 0.01322,-0.22483 l 0.171931,-0.18516 q 0.145479,-0.11903 1.177063,-0.68772 0.939006,-0.50257 2.155745,-0.75385 1.322543,-0.26451 2.023491,-0.0132 1.269641,0.4629 1.785433,1.30932 0.489341,0.8332 0.502567,2.48638 l 0.674497,0.37032 q 0.436439,0.25128 0.674496,0.50256 l 0.224833,0.25129 1.150612,1.29609 q 0.819977,0.91255 1.229965,1.20351 0.555468,0.39676 1.322543,0.42322 l 1.031584,-0.0794 0.224832,-1.49447 q 0.119029,-1.22997 0.02645,-1.65318 l -0.767075,-0.64805 q -0.595144,-0.2116 -0.793526,-0.38353 -0.396763,-0.39677 -0.357086,-1.28287 l 0.01323,-0.63482 -0.224832,-0.19838 q -0.92578,-0.76708 -1.243191,-1.24319 -0.489341,-0.71418 -0.277734,-1.65318 0.198382,-0.85965 0.687723,-1.07126 0.383537,-0.15871 0.370312,-0.13226 l 1.296092,-0.64804 q 0.330636,-0.11903 0.634821,0.0529 l 0.409988,0.37031 q 0.370312,0.37031 0.436439,0.38354 l 0.912555,0.11903 0.833202,-1.349 q 0.555468,-0.96545 0.634821,-1.22996"
         id="path2444"
         style="stroke-width:0.264509" /><path
         fill="#f29600"
         d="m 99.220773,154.64474 0.105804,-0.74062 q 0.07935,-0.44967 0.251283,-0.59515 l 0.68772,-0.51579 q 0.6216,-0.23806 1.46803,0.22483 l 0.47611,0.88611 q 0.40999,0.97868 0.1058,1.44157 -0.19838,0.29096 -0.42321,0.96545 -0.23806,0.68773 -0.19838,0.89933 0.0794,0.48934 0.70095,1.05804 l 0.60837,0.46289 0.7274,-0.21161 q 0.7803,-0.13225 1.05803,0.27773 0.29096,0.42322 0.31741,1.49448 0.0265,0.939 -0.1058,1.19029 l -0.75385,0.54224 q -0.75385,0.44966 -0.96546,0.6745 l -0.84643,1.00513 q -0.55547,0.68772 -0.64804,0.87288 -0.21161,0.35708 -0.89933,0.54224 l -0.64805,0.1058 -0.19838,1.24319 q -0.304185,1.54738 -0.859653,2.98895 -0.648046,1.66641 -1.031584,2.24832 -0.330635,0.48935 -0.978681,0.91256 -0.568694,0.37031 -1.428347,0.43644 -0.793526,0.0661 -1.163838,-0.14548 -0.211607,-0.1058 -0.939005,-0.99191 -0.767075,-0.939 -1.177064,-1.24319 l -1.348994,-1.09771 q -0.965456,-0.80675 -1.573826,-1.21674 -0.806751,-0.55547 -3.015398,-0.91255 l -0.621595,-0.0794 h -0.238058 l -3.742797,-5.99112 1.838335,-0.81997 q 2.010265,-0.75385 2.843468,-0.46289 0.978681,0.35708 1.428346,0.7803 0.409988,0.37031 0.60837,1.01836 0.238058,0.80675 0.158705,1.74575 l 0.555468,0.31741 q 0.621595,0.38354 0.952231,0.74063 l 1.163838,1.25641 q 0.872878,0.88611 1.401896,1.26964 1.150612,0.81998 2.605409,0.70095 -0.105803,0.37031 -0.568693,0.66127 l -0.661272,0.46289 -0.542242,0.31741 q -0.211607,0.17193 -0.224833,0.48934 -0.01323,0.35709 0.29096,1.09771 0.304185,0.7274 0.409988,0.68773 l -0.145479,-0.46289 q -0.238058,-0.60837 -0.198382,-1.24319 0,-0.13226 0.171931,-0.26451 0.105803,-0.0661 0.515791,-0.30419 l 0.581919,-0.33063 q 0.489341,-0.31741 0.886104,-0.95223 l 0.105804,-0.23806 0.185156,-0.68772 0.330635,-1.52093 q 0.119029,-0.71417 0.03968,-1.37544 l -0.119029,-0.51579 q -0.859653,-0.83321 -1.137387,-0.95224 l -0.436439,-0.22483 q -0.224833,-0.23806 -0.224833,-0.8332 l 0.01323,-0.68772 -0.0529,-0.29096 -0.740624,-0.55547 q -0.75385,-0.51579 -0.991907,-0.84643 -0.581919,-0.80675 -0.251284,-1.45479 l 0.43644,-0.48935 1.719306,-0.56869 0.370312,0.33064 q 0.370312,0.39676 0.63482,0.48934 l 0.886104,0.14548 0.661272,-0.0661 q 0.17193,-0.0926 0.952231,-1.42835 0.793526,-1.33577 0.846427,-1.6664"
         id="path2446"
         style="stroke-width:0.264509" /><path
         fill="#0d131a"
         d="m 96.522785,159.23396 q -0.0529,0.52902 -0.568693,0.68773 -0.476116,0.14548 -0.767075,-0.10581 -0.555468,-0.47611 -0.965456,-0.64804 l -0.423214,-0.0661 -0.317411,-0.0397 q -0.46289,-0.0794 -0.648046,-0.75385 -0.119029,-0.46289 -0.02645,-0.92578 0.132254,-0.55546 0.555468,-0.939 0.502566,-0.44967 1.216739,-0.38354 0.648046,0.0661 0.872879,0.38354 l 0.07935,0.0794 q 0.833202,0.8332 0.939006,1.48125 0.119029,0.74062 0.0529,1.22996"
         id="path2448"
         style="stroke-width:0.264509" /><path
         fill="#0d131a"
         d="m 96.416982,158.85043 -0.06613,-0.81998 q -0.105804,-0.58192 -0.899329,-1.41512 l -0.09258,-0.0926 q -0.211607,-0.26451 -0.793526,-0.33064 -0.634821,-0.0794 -1.124162,0.34387 -0.555468,0.50256 -0.555468,1.25641 l 0.06613,0.47612 q 0.171931,0.60837 0.542243,0.67449 l 0.31741,0.0397 0.46289,0.0661 q 0.409989,0.18515 0.872879,0.58192 0.277734,0.2116 0.714173,0.14548 0.476115,-0.0794 0.529017,-0.48934 l 0.02645,-0.43644 m 0.171931,-0.85966 q 0.132254,0.79353 -0.09258,1.44157 -0.251284,0.66128 -0.476116,0.78031 -0.224832,0.11902 -0.60837,-0.22484 -0.383537,-0.34386 -1.24319,-0.71417 l -0.714173,-0.0926 q -0.529018,-0.0794 -0.740625,-0.84643 -0.132254,-0.48934 -0.02645,-0.97868 0.132254,-0.58192 0.595144,-0.9919 0.529017,-0.48935 1.309318,-0.42322 l 0.581919,0.15871 0.370312,0.26451 0.07935,0.0794 q 0.846428,0.84643 0.965457,1.54737"
         id="path2450"
         style="stroke-width:0.264509" /><path
         fill="#ffffff"
         d="m 94.591873,156.40372 q 0.423213,0.0661 0.555468,0.22483 l 0.449664,0.50257 q 0.396763,0.48934 0.46289,0.85965 0.14548,0.89933 -0.01322,1.4548 l -0.198381,0.38354 -0.09258,-0.0926 q -0.211607,-0.59514 -1.084486,-1.22997 l -0.370312,-0.0926 q -0.330636,-0.0529 -0.555468,-0.19838 l -0.568693,-0.59515 q 0.0529,-0.58192 0.46289,-0.92578 0.396763,-0.35709 0.952231,-0.29096"
         id="path2452"
         style="stroke-width:0.264509" /><path
         fill="#dbdcdc"
         d="m 93.573514,158.61237 q -0.158705,-0.0265 -0.290959,-0.31741 -0.132254,-0.31741 -0.105803,-0.6745 l 0.568693,0.59515 q 0.224832,0.14548 0.555468,0.19838 l 0.370312,0.0926 q 0.872879,0.63483 1.084486,1.22997 -0.780301,-0.74062 -1.388671,-1.00513 l -0.383537,-0.0794 -0.409989,-0.0397"
         id="path2454"
         style="stroke-width:0.264509" /><path
         fill="#0d131a"
         d="m 101.32362,152.31706 q 0.67449,0.30419 0.87288,1.03159 0.13225,0.46289 0.0397,1.00513 -0.0661,0.47612 -0.22483,0.6745 -1.81188,1.74575 -2.380578,1.87801 -0.264509,0.0397 -0.383538,-0.10581 -0.290959,-0.35708 -0.409988,-1.50769 -0.132254,-1.21674 0.14548,-1.78544 0.806751,-1.86478 2.340904,-1.19029"
         id="path2456"
         style="stroke-width:0.264509" /><path
         fill="#0d131a"
         d="m 101.23104,152.51544 q -0.7803,-0.34386 -1.322544,0.0661 -0.396763,0.29096 -0.727399,1.01836 -0.251283,0.54224 -0.171931,1.73253 0.06613,1.13739 0.29096,1.41512 l 0.198381,0.0265 q 0.304185,-0.0661 1.282863,-0.89933 l 1.05804,-0.97868 0.14548,-0.37031 0.0661,-0.60837 -0.0661,-0.51579 q -0.15871,-0.6216 -0.75385,-0.88611 m -2.367353,0.89933 q 0.330635,-0.97868 1.018358,-1.32254 0.674495,-0.34386 1.520925,0.0265 0.81998,0.35709 1.01836,1.36222 0.18515,0.95223 -0.33064,1.60028 -0.50256,0.71417 -1.44157,1.42834 -0.991907,0.76708 -1.36222,0.6216 -0.409988,-0.15871 -0.581918,-1.4019 -0.185157,-1.30931 0.158705,-2.31445"
         id="path2458"
         style="stroke-width:0.264509" /><path
         fill="#ffffff"
         d="m 99.313351,153.5338 q 0.317411,-0.70094 0.700949,-0.96545 l 1.15061,-0.0397 q 0.37031,0.14548 0.58192,0.52902 -0.0529,0.75385 -0.39676,1.29609 -0.87288,1.30932 -1.930915,2.35413 -0.211607,0.0265 -0.29096,-1.28287 -0.07935,-1.33577 0.185156,-1.89124"
         id="path2460"
         style="stroke-width:0.264509" /><path
         fill="#dbdcdc"
         d="m 100.66235,155.74245 q -0.965461,0.89933 -1.22997,0.96546 h -0.01322 q 1.05804,-1.04481 1.93092,-2.35413 0.34386,-0.54224 0.39676,-1.29609 0.2116,0.40999 0.14548,1.00513 -0.0529,0.44966 -0.17193,0.63482 l -1.05803,1.04481"
         id="path2462"
         style="stroke-width:0.264509" /><path
         fill="#0d131a"
         d="m 101.6278,160.18619 0.63482,-1.20351 q 0.35709,-0.40999 0.89933,-0.42321 0.54224,0 0.97868,0.44966 0.47612,0.47612 0.35709,1.22997 -0.11903,0.59514 -0.81998,0.939 l -1.01835,0.35709 q -0.91256,0.27773 -1.2432,0.23806 l -0.27773,-0.0264 q -0.1058,-0.30419 0.48934,-1.56061"
         id="path2464"
         style="stroke-width:0.264509" /><path
         fill="#0d131a"
         d="m 101.65425,160.43748 q -0.51579,1.13738 -0.47611,1.24319 l 0.40999,-0.0264 0.92578,-0.15871 q 0.46289,-0.11903 1.12416,-0.44966 0.64804,-0.33064 0.74062,-0.8332 l 0.0132,-0.26451 q 0,-0.5158 -0.33064,-0.84643 -0.42321,-0.43644 -0.8861,-0.40999 -0.50257,0 -0.80675,0.35709 l -0.71418,1.38867 m -0.7274,1.48125 q -0.14548,-0.13226 0.31741,-1.30932 0.47612,-1.21674 0.92578,-1.71931 0.40999,-0.43644 0.99191,-0.44966 0.59515,0 1.07126,0.48934 0.52902,0.52902 0.38354,1.32254 -0.0661,0.38354 -0.31741,0.71417 l -0.51579,0.43644 q -0.34386,0.18516 -1.5077,0.40999 l -1.349,0.10581"
         id="path2466"
         style="stroke-width:0.264509" /><path
         fill="#ffffff"
         d="m 104.20676,159.60428 q -0.35709,0.54224 -1.01836,1.0448 -0.81997,0.59515 -1.89123,0.95224 -0.11903,-0.0132 0.51579,-1.21674 0.60837,-1.15062 0.7803,-1.349 0.22483,-0.23806 0.52902,-0.27773 0.43643,-0.0661 0.81997,0.33063 0.22483,0.22484 0.26451,0.5158"
         id="path2468"
         style="stroke-width:0.264509" /><path
         fill="#dbdcdc"
         d="m 103.69097,160.90037 -1.16384,0.40999 q -0.99191,0.31741 -1.22996,0.29096 1.07126,-0.35709 1.89123,-0.95224 0.66127,-0.50256 1.01836,-1.0448 0.0529,0.39676 -0.1587,0.8332 -0.17194,0.35708 -0.35709,0.46289"
         id="path2470"
         style="stroke-width:0.264509" /><path
         fill="#d18200"
         d="m 99.26045,160.47715 q -0.370312,0.30419 -0.714174,0.7274 -0.700947,0.85966 -0.608369,1.48125 0.0529,0.42321 0.290959,0.8332 -0.700948,-0.17193 -1.163838,-0.80675 -0.46289,-0.64804 -0.46289,-1.46802 0,-0.96546 0.60837,-1.65318 0.595144,-0.68772 1.454797,-0.68772 0.529017,0 0.991908,0.29096 0.449667,0.27773 0.740627,0.75385 -0.806755,0.26451 -1.13739,0.52901"
         id="path2472"
         style="stroke-width:0.264509" /><path
         fill="#0d131a"
         d="m 99.26045,160.47715 q 0.224832,-0.17193 0.7803,-0.39676 0.54224,-0.22483 0.56869,-0.17193 l -0.46289,0.26451 -0.700944,0.39676 q -0.357087,0.27774 -0.780301,0.93901 -0.489341,0.79352 -0.423214,1.28286 0.119029,0.85966 0.991908,1.62673 l 0.819981,0.6216 q -0.06613,0.17193 -0.978686,-0.5687 -0.991908,-0.80675 -1.137387,-1.78543 -0.09258,-0.62159 0.608369,-1.48125 0.343862,-0.42321 0.714174,-0.7274"
         id="path2474"
         style="stroke-width:0.264509" /><path
         fill="#f29600"
         d="m 93.388358,174.15225 0.224833,0.54224 q 0.277734,0.6216 0.568693,1.00513 l 1.706081,1.71931 q 1.653179,1.86479 3.081525,4.7347 1.58705,3.17411 1.98381,5.85887 0.29096,2.04994 -0.0926,4.16601 -0.25129,1.4548 -0.79353,2.9625 l -0.529016,1.45479 q -0.09258,0.46289 -0.105804,1.01836 -0.02645,0.5687 0.06613,0.64805 l 0.87288,0.70095 q 0.939,0.79352 1.28286,1.25641 l 1.26964,1.60028 0.30419,0.1587 q 0.33063,0.18516 0.38354,0.33064 0.18515,0.44967 -0.0529,1.16384 -0.29095,0.8332 -1.00513,1.21674 l -1.09771,0.58192 q -0.0794,-0.79353 -0.29096,-0.6745 -0.70095,0.42321 -1.348989,0.18516 v 0.97868 l -1.864786,0.18515 -0.939006,0.0397 q -0.555468,-1.26964 -0.912554,-0.96546 -0.343861,0.30419 -0.89933,0.18516 -0.489341,-0.1058 -0.753849,-0.42321 l -0.03968,1.19028 q -1.891237,-0.0661 -3.0683,-0.39676 l -0.370312,-1.04481 q -0.396763,-0.2116 -0.687723,-0.67449 -0.290959,-0.47612 -0.383537,-1.04481 0.277734,-1.53415 1.269641,-3.08153 0.07935,-0.14548 0.0529,-1.16384 l 0.529017,0.10581 1.203514,0.0529 0.621595,-0.0926 -0.608369,-0.1058 -1.110936,-0.18516 -0.648047,-0.18515 v -0.0132 q -0.304184,-0.0661 -0.872878,-0.44966 -1.150612,-0.78031 -2.473156,-2.40703 -1.362219,-1.67963 -1.758982,-3.8486 -0.211607,-1.15062 -0.145479,-3.02863 0.07935,-2.20864 1.38867,-4.53632 l 1.296092,-1.89124 4.747929,-7.82945"
         id="path2476"
         style="stroke-width:0.264509" /><path
         fill="#d18200"
         d="m 101.16491,204.59719 q 0.21161,-0.11903 0.29096,0.6745 -0.64805,0.31741 -1.639952,0.48934 v -0.97868 q 0.648042,0.23805 1.348992,-0.18516"
         id="path2478"
         style="stroke-width:0.264509" /><path
         fill="#d18200"
         d="m 96.099572,205.0204 q 0.357086,-0.30418 0.912554,0.96546 -1.348994,0.0397 -2.605409,-0.0132 l 0.03968,-1.19028 q 0.264508,0.31741 0.753849,0.42321 0.555469,0.11903 0.89933,-0.18516"
         id="path2480"
         style="stroke-width:0.264509" /><path
         fill="#d18200"
         d="m 89.896845,202.81176 q 0.09258,0.56869 0.383537,1.04481 0.29096,0.46289 0.687723,0.67449 l 0.370312,1.04481 q -1.520925,-0.39676 -1.560601,-1.17706 -0.03968,-0.75385 0.119029,-1.58705"
         id="path2482"
         style="stroke-width:0.264509" /><path
         fill="#ffffff"
         d="m 101.4691,204.41203 -0.0529,0.0265 q 0.31742,-0.79352 0.80676,-1.22996 0.52901,-0.46289 0.76707,-0.58192 0.26451,-0.14548 0.40999,0.0397 l 0.58192,0.91255 0.6745,1.24319 q 0.40998,0.92578 0.33063,1.73253 -0.0397,0.40999 -0.1587,0.6216 -0.0794,-0.55547 -0.79353,-1.19029 -0.58192,-0.51579 -0.97868,-0.66127 -0.48934,-0.15871 -0.91256,-0.35709 -0.63482,-0.31741 -0.67449,-0.55547"
         id="path2484"
         style="stroke-width:0.264509" /><path
         fill="#dbdcdc"
         d="m 101.28394,205.23201 q -0.17193,-0.0661 0.13225,-0.79353 l 0.0529,-0.0265 q 0.0397,0.23806 0.67449,0.55547 0.42322,0.19838 0.91256,0.35709 0.39676,0.14548 0.97868,0.66127 0.71417,0.63482 0.79353,1.19029 -0.76708,-0.79353 -1.12417,-0.97868 l -1.26964,-0.51579 -1.15061,-0.44967"
         id="path2486"
         style="stroke-width:0.264509" /><path
         fill="#ffffff"
         d="m 98.453698,202.94401 0.859653,1.19029 q 0.767079,1.19029 0.767079,1.89124 0,1.25641 -0.277738,1.99704 l -0.277734,0.47611 -0.119029,-0.17193 q 0.03968,-0.7803 -0.833202,-1.57382 -0.60837,-0.5687 -1.190289,-0.80676 -0.912554,-0.39676 -1.031583,-1.00513 0.31741,-0.89933 0.714173,-1.33577 0.423214,-0.44966 0.886104,-0.63482 l 0.502566,-0.0265"
         id="path2488"
         style="stroke-width:0.264509" /><path
         fill="#dbdcdc"
         d="m 97.382438,205.94618 q 0.581919,0.23806 1.190289,0.80676 0.872879,0.79352 0.833202,1.57382 l -0.568693,-0.6745 q -0.264509,-0.25128 -1.38867,-0.939 -1.07126,-0.66127 -1.256416,-0.71417 -0.07935,-0.0132 -0.02645,-0.33064 0.03968,-0.31741 0.185156,-0.7274 0.119029,0.60837 1.031583,1.00513"
         id="path2490"
         style="stroke-width:0.264509" /><path
         fill="#ffffff"
         d="m 91.642602,203.44658 q 0.290959,-0.35709 0.608369,-0.5687 0.370312,-0.22483 0.502567,-0.0661 l 0.846427,1.01836 q 0.714174,0.89932 0.793526,1.17706 0.211607,0.71417 -0.31741,2.06317 -0.264509,0.67449 -0.581919,1.20351 l -0.07935,-0.13225 v -0.0661 q -0.03968,-0.66127 -0.476115,-1.26964 l -0.740624,-0.85966 -0.621596,-0.63482 -0.529017,-0.59514 q 0.317411,-0.93901 0.595145,-1.26964"
         id="path2492"
         style="stroke-width:0.264509" /><path
         fill="#dbdcdc"
         d="m 92.19807,205.94618 0.740624,0.85966 q 0.436439,0.60837 0.476115,1.26964 v 0.0661 q -0.502566,-0.75385 -0.727398,-0.99191 l -1.745757,-1.69286 q -0.105804,-0.0794 0.105803,-0.74062 l 0.529017,0.59514 0.621596,0.63482"
         id="path2494"
         style="stroke-width:0.264509" /><path
         fill="#0d131a"
         d="m 101.5749,204.26655 q -0.29096,0.6216 -0.25128,0.87288 l 0.0529,0.0794 0.31741,0.11902 1.98381,0.79353 q 0.33064,0.18516 1.07126,0.93901 0.11903,-0.18516 0.15871,-0.6216 0.0794,-0.75385 -0.31741,-1.6135 l -0.63482,-1.19029 -0.5687,-0.87288 q -0.0661,-0.0926 -0.1587,-0.0926 -0.22483,-0.0264 -0.96546,0.60837 -0.37031,0.33064 -0.68772,0.97868 m -0.0529,1.53415 -0.33064,-0.13225 q -0.27773,-0.0926 -0.34386,-0.43644 -0.0661,-0.40999 0.29096,-1.16384 0.35709,-0.75385 0.80675,-1.15061 l 0.71418,-0.55547 q 0.34386,-0.19838 0.62159,-0.17193 0.29096,0.0397 0.50257,0.29096 l 0.58192,0.91256 0.66127,1.24319 q 0.46289,1.00513 0.35708,1.91768 -0.0529,0.46289 -0.2116,0.75385 l -0.15871,0.29096 -0.18515,0.11903 q -0.11903,0.0265 -0.19839,-0.0794 l -0.22483,-0.22483 q -0.74062,-0.74063 -0.96545,-0.84643 -0.31741,-0.18516 -1.91769,-0.76708"
         id="path2496"
         style="stroke-width:0.264509" /><path
         fill="#0d131a"
         d="m 96.245051,205.93296 0.0529,0.0661 q 0.198382,0.0661 1.203514,0.68772 1.058035,0.63482 1.309318,0.87288 l 0.648046,0.80675 q 0.14548,-0.11903 0.264509,-0.46289 0.264508,-0.70095 0.264508,-1.89124 0,-0.97868 -1.494473,-2.85669 l -0.0529,-0.0794 -0.132254,-0.0529 q -0.198382,-0.0132 -0.489341,0.14548 -0.370312,0.18516 -0.700948,0.54225 -0.357087,0.38353 -0.648046,1.19029 -0.29096,0.76707 -0.224833,1.03158 m -0.105803,0.52902 q -0.264509,-0.0794 -0.357087,-0.39677 -0.119029,-0.40999 0.211607,-1.32254 0.343861,-0.89933 0.767075,-1.36222 0.370312,-0.40999 0.806751,-0.63482 0.423214,-0.22483 0.767075,-0.21161 0.317411,0.0265 0.502567,0.25129 l 0.03968,0.0661 q 1.600274,2.01027 1.600274,3.16088 0,1.29609 -0.30419,2.08962 -0.17193,0.44966 -0.396755,0.64805 l -0.211607,0.17193 -0.198381,0.0661 -0.171931,-0.11903 -0.145479,-0.23805 q -0.264509,-0.42322 -0.568694,-0.71418 -0.211607,-0.19838 -1.203514,-0.80675 -0.965456,-0.59514 -1.137387,-0.64804"
         id="path2498"
         style="stroke-width:0.264509" /><path
         fill="#0d131a"
         d="m 92.872567,203.08949 -0.119029,-0.14548 q -0.06613,-0.0661 -0.14548,-0.0661 -0.185156,0 -0.449665,0.21161 -0.264508,0.19838 -0.46289,0.46289 -0.211607,0.25128 -0.489341,0.97868 -0.290959,0.76708 -0.185156,0.93901 l 0.780301,0.7274 0.886104,0.87288 q 0.277734,0.30418 0.767075,1.07126 0.423213,-0.71418 0.687722,-1.49448 0.343861,-1.04481 0.171931,-1.6135 -0.105804,-0.37031 -1.441572,-1.94414 m -1.560601,0.15871 q 0.17193,-0.23806 0.476115,-0.48934 0.449665,-0.37032 0.819977,-0.37032 0.304185,0 0.515792,0.23806 l 0.119029,0.14548 q 1.401895,1.63995 1.53415,2.11607 0.238057,0.79353 -0.251284,2.14252 -0.277734,0.7274 -0.648046,1.36222 l -0.198381,0.34386 -0.211607,0.13225 -0.198381,-0.11902 -0.224833,-0.34387 -0.714173,-1.00513 -1.626728,-1.57382 q -0.383537,-0.33064 0.03968,-1.44158 0.317411,-0.80675 0.568694,-1.13738"
         id="path2500"
         style="stroke-width:0.264509" /><path
         fill="#0d131a"
         d="m 92.766763,199.30702 -0.740624,-0.15871 q -0.383537,-0.13225 -0.357087,-0.19838 l 0.330636,0.0397 0.674497,0.0926 1.084485,-0.0265 q 0.714174,-0.0397 0.714174,0 l -0.674497,0.15871 -1.031584,0.0926"
         id="path2502"
         style="stroke-width:0.264509" /><path
         fill="#f29600"
         d="m 80.572916,116.10583 q 0.952231,-0.0661 1.587052,1.349 0.171931,0.37031 0.409988,1.62673 l 0.330636,1.85156 q 0.09258,0.54224 0.912555,4.02053 0.290959,1.26964 1.864785,3.75602 l 0.75385,1.32254 0.224832,0.7274 q 0.0529,0.42322 -0.436439,1.94414 0.251283,0.8332 0.185156,2.38058 l 0.859653,2.4467 0.46289,1.19029 0.542243,1.07126 q 0.105803,0.17193 0.383537,0.18516 0.238058,0.0264 0.46289,0.44966 0.43644,0.8332 -0.886103,3.10798 l -1.401896,2.11607 q 0.171931,1.12416 -1.058035,1.48124 l -1.864785,0.22484 q -0.304185,0.0397 -0.886104,0.35708 -0.529017,0.27774 -1.21674,0.27774 -0.819976,0 -1.904462,-0.60837 -0.939005,-0.50257 -1.150612,-0.84643 l -0.833202,-1.03158 -1.150613,-1.38867 -1.547375,-1.69286 -1.415121,-1.48125 q -0.277734,-0.31741 -0.674497,-0.43644 l -0.330636,-0.0529 q -0.899329,-0.79352 -1.53415,-2.06316 -0.502566,-1.01836 -0.502566,-1.44158 0,-0.30418 0.14548,-1.22996 0.158705,-0.99191 0.330635,-1.60028 0.396763,-1.40189 0.396763,-2.32767 0,-0.80676 -0.700948,-2.8038 -0.304184,-0.89933 -1.944138,-3.59731 l -1.150612,-1.41512 -1.348994,-1.57383 q -0.423214,-0.51579 -0.383538,-1.29609 0.03968,-0.6745 0.317411,-0.87288 0.277734,-0.19838 0.939005,-0.21161 0.621595,0 0.978682,0.14548 0.304185,0.11903 1.203514,0.99191 l 1.758983,1.75898 q 2.182196,2.1822 3.756022,3.26668 0.661271,0.46289 1.864785,0.19838 0.965457,-0.19838 1.917688,-0.75385 0.674497,-0.39676 0.859653,-1.50769 0.07935,-0.50257 0.07935,-1.90447 l -0.145479,-2.48638 q -0.132255,-1.78543 -0.119029,-2.08962 0.02645,-0.58191 0.238058,-0.96545 0.264508,-0.52902 0.819976,-0.5687"
         id="path2504"
         style="stroke-width:0.264509" /><path
         fill="#0d131a"
         d="m 83.495736,142.37154 0.621596,0.23806 0.529017,0.0661 0.46289,-0.0132 0.251283,-0.0661 0.14548,0.0264 q 0.03968,0.10581 -0.211607,0.19838 l -0.634821,0.10581 q -0.608369,0 -1.24319,-0.31741 -0.158705,-0.0794 -0.542243,-0.11903 l -0.502566,-0.0132 q -0.158705,0.0265 -0.886104,0.75385 -0.264509,0.26451 -0.396763,0.0794 -0.09258,-0.11903 0.251283,-0.39677 l 0.555468,-0.40999 q 0.46289,-0.30418 0.793526,-0.30418 0.343861,0 0.806751,0.17193"
         id="path2506"
         style="stroke-width:0.264509" /><path
         fill="#0d131a"
         d="m 83.522187,144.48761 -0.581919,-0.15871 -0.46289,0.13226 q -0.290959,0.0397 -0.396763,-0.10581 -0.0529,-0.0793 0.198382,-0.2645 0.251283,-0.17194 0.409988,-0.18516 0.14548,-0.0132 0.502567,0.1587 l 0.436439,0.25129 q 0.09258,0.0794 0.0529,0.14548 l -0.158705,0.0264"
         id="path2508"
         style="stroke-width:0.264509" /><path
         fill="#0d131a"
         d="m 88.230441,142.10703 q 0.06613,0.0794 -0.07935,0.26451 l -0.238058,0.26451 -0.449664,0.68772 q -0.105804,0.18516 -0.238058,0.15871 -0.14548,-0.0397 -0.06613,-0.18516 0.09258,-0.18516 0.476115,-0.71417 0.09258,-0.15871 0.330636,-0.33064 0.238058,-0.18516 0.264509,-0.14548"
         id="path2510"
         style="stroke-width:0.264509" /><path
         fill="#0d131a"
         d="m 81.207737,134.10565 -0.03968,-0.14548 q 0,-0.0926 0.06613,-0.11903 l 0.224832,0.1058 0.171931,0.47612 0.17193,0.23805 0.09258,0.21161 -0.105803,0.25128 q -0.119029,0.10581 -0.198382,0.0794 -0.09258,-0.0397 -0.09258,-0.48934 l -0.119028,-0.30419 -0.171931,-0.30418"
         id="path2512"
         style="stroke-width:0.264509" /><path
         fill="#0d131a"
         d="m 81.591274,135.34884 q 0.119029,0.0529 -0.07935,0.81997 l -0.60837,1.73253 -0.343861,0.46289 q -0.29096,0.29096 -0.370312,0.23806 -0.132254,-0.0926 0.14548,-0.51579 l 0.17193,-0.22483 0.171931,-0.26451 0.330635,-0.79353 0.317411,-0.8332 q 0.198381,-0.6745 0.264508,-0.62159"
         id="path2514"
         style="stroke-width:0.264509" /><path
         fill="#0d131a"
         d="m 84.6728,134.06597 0.06613,0.21161 0.01322,0.37031 -0.07935,0.63482 q 0,0.63482 -0.211607,0.59514 -0.132254,-0.0264 -0.132254,-0.19838 l 0.02645,-0.29096 0.14548,-0.59514 q 0.09258,-0.71418 0.171931,-0.7274"
         id="path2516"
         style="stroke-width:0.264509" /><path
         fill="#0d131a"
         d="m 78.628778,144.1173 0.03968,0.71417 q -0.01322,0.22483 0.198382,0.30418 0.211607,0.0794 0.396763,-0.17193 l 0.158705,0.23806 q -0.304185,0.38354 -0.661272,0.38354 -0.238057,0 -0.357086,-0.56869 -0.119029,-0.55547 -0.07935,-1.36222 l 0.304185,0.46289"
         id="path2518"
         style="stroke-width:0.264509" /><path
         fill="#ffffff"
         d="m 78.813934,145.18856 q -0.238058,-0.10581 -0.185156,-1.07126 l 0.634821,0.84642 -0.264509,0.21161 -0.185156,0.0132"
         id="path2520"
         style="stroke-width:0.264509" /><path
         fill="#ffffff"
         d="m 86.20695,133.4576 0.0529,0.34386 q 0.07935,0.6216 0.01323,1.32254 -0.01323,0.27774 -0.277734,0.75385 -0.330636,0.58192 -0.780301,0.79353 0.02645,-0.79353 0.264509,-1.53415 0.277734,-0.84643 0.727399,-1.67963"
         id="path2522"
         style="stroke-width:0.264509" /><path
         fill="#0d131a"
         d="m 106.67992,134.71402 q 0.0926,-0.0397 0.27773,0.11902 l 0.23806,0.25129 q 1.41512,1.87801 2.69799,6.20272 1.33576,4.4702 1.85156,9.32393 0.0529,0.42322 -0.0132,0.75385 -0.0529,0.30419 -0.17193,0.31741 -0.23806,0.0264 -0.33064,-1.03158 -0.43644,-4.39084 -1.74575,-8.86104 -1.21674,-4.16601 -2.61864,-6.52014 -0.30418,-0.50256 -0.18515,-0.55546"
         id="path2524"
         style="stroke-width:0.264509" /><path
         fill="#0d131a"
         d="m 110.46239,137.09459 q 0.0926,-0.0397 0.39676,0.37031 l 0.33064,0.50257 q 3.09475,8.54363 2.32767,16.28051 l -0.0529,0.66127 q -0.0661,0.55547 -0.1587,0.55547 -0.0794,0 -0.17193,-0.48935 l -0.0794,-0.60836 q 0.31741,-10.10423 -2.40702,-16.35986 -0.37032,-0.8332 -0.18516,-0.91256"
         id="path2526"
         style="stroke-width:0.264509" /><path
         fill="#0d131a"
         d="m 55.127188,138.06005 0.171931,-0.26451 q 0.119028,-0.17193 0.198381,-0.14548 0.09258,0.0265 0.09258,0.26451 l -0.0529,0.34386 q -0.767075,2.11607 -1.163838,5.79274 -0.436439,3.92795 -0.17193,7.26076 v 0.48934 q -0.02645,0.37031 -0.119029,0.37031 -0.09258,0 -0.185156,-0.37031 l -0.07935,-0.47611 q -0.409988,-3.43862 0.02645,-7.67075 0.423214,-4.17924 1.282867,-5.59436"
         id="path2528"
         style="stroke-width:0.264509" /><path
         fill="#0d131a"
         d="m 53.302079,141.14157 q 0.119028,-0.39676 0.251283,-0.35708 0.09258,0.0132 0.119029,0.2116 v 0.29096 q -0.912555,3.55765 -1.375445,7.28722 -0.489341,3.96763 -0.370312,7.45914 0,0.76707 -0.132254,0.7803 -0.09258,0 -0.132255,-0.33064 l -0.02645,-0.44966 q -0.46289,-3.42539 0.06613,-7.51205 0.449664,-3.57086 1.600277,-7.37979"
         id="path2530"
         style="stroke-width:0.264509" /><path
         fill="#ffffff"
         d="m 75.348871,133.93371 q 0.171931,-0.0793 0.383538,0.0529 l 2.711213,2.01026 0.185156,0.15871 q 0.238058,0.14548 0.343861,0.43644 l 0.185156,0.38353 0.277734,0.64805 -0.0529,0.18516 -0.581919,0.0264 -1.653179,-0.31741 -0.14548,-0.0397 -1.401896,-0.37031 q -0.542242,-0.19838 -0.608369,-0.46289 -0.06613,-0.30419 -0.01323,-1.12416 l 0.132254,-1.21674 q 0.0529,-0.29096 0.238058,-0.37032"
         id="path2532"
         style="stroke-width:0.264509" /><path
         fill="#ffffff"
         d="m 75.348871,133.93371 q 0.171931,-0.0793 0.383538,0.0529 l 2.711213,2.01026 0.185156,0.15871 q 0.238058,0.14548 0.343861,0.43644 l 0.185156,0.38353 0.277734,0.64805 -0.0529,0.18516 -0.581919,0.0264 -1.653179,-0.31741 -0.14548,-0.0397 -1.401896,-0.37031 q -0.542242,-0.19838 -0.608369,-0.46289 -0.06613,-0.30419 -0.01323,-1.12416 l 0.132254,-1.21674 q 0.0529,-0.29096 0.238058,-0.37032"
         id="path2534"
         style="stroke-width:0.264509" /><path
         fill="#008086"
         d="m 76.777218,134.72724 0.02645,0.0265 1.825109,1.4019 q 0.238058,0.14548 0.343861,0.43644 l 0.185156,0.38353 0.277734,0.64805 -0.0529,0.18516 -0.581919,0.0264 -1.53415,-0.29096 q -0.568694,-0.89933 -0.568694,-2.02349 0,-0.40999 0.07935,-0.79353"
         id="path2536"
         style="stroke-width:0.264509" /><path
         fill="#008086"
         d="m 85.400198,136.72428 -0.330635,0.17193 0.01322,-0.23806 q 0.01323,-0.81997 0.264509,-1.5606 l 0.383537,-0.9919 q 0.185156,0.48934 0.185156,1.01835 0,0.91256 -0.515792,1.60028"
         id="path2538"
         style="stroke-width:0.264509" /><path
         fill="#00666c"
         d="m 85.373748,136.22171 q -0.119029,0 -0.238058,-0.1587 l 0.211607,-0.96546 q 0.145479,-0.46289 0.370312,-0.95223 0.185156,0.37031 0.185156,0.89933 0,0.48934 -0.158705,0.8332 -0.14548,0.34386 -0.370312,0.34386"
         id="path2540"
         style="stroke-width:0.264509" /><path
         fill="#0d131a"
         d="m 85.558904,135.93075 q -0.09258,0.37032 -0.383538,0.31742 0.02645,-0.27774 0.211607,-0.83321 0.251283,0.21161 0.171931,0.51579"
         id="path2542"
         style="stroke-width:0.264509" /><path
         fill="#00666c"
         d="m 76.777218,134.72724 0.02645,0.0265 1.825109,1.4019 q 0.238058,0.14548 0.343861,0.43644 l 0.29096,0.60837 -1.190289,0.0794 q -0.714173,-0.13226 -1.190289,-0.59515 -0.185156,-0.55546 -0.185156,-1.16383 0,-0.40999 0.07935,-0.79353"
         id="path2544"
         style="stroke-width:0.264509" /><path
         fill="#0d131a"
         d="m 77.372362,137.45168 -0.31741,-0.0132 q -0.502567,-0.85965 -0.502567,-1.91768 0,-0.37032 0.09258,-0.88611 l 0.01323,-0.0132 q 0.01323,0.18515 0.238058,0.18515 l -0.06613,0.71418 q 0,1.04481 0.542243,1.93091"
         id="path2546"
         style="stroke-width:0.264509" /><path
         fill="#0d131a"
         d="m 78.112986,137.2004 q -0.224832,0 -0.370312,-0.15871 -0.132254,-0.1587 -0.132254,-0.37031 0,-0.21161 0.132254,-0.37031 0.14548,-0.14548 0.330636,-0.14548 0.171931,0 0.304185,0.1587 0.132254,0.15871 0.132254,0.37031 l -0.09258,0.34387 -0.304185,0.17193"
         id="path2548"
         style="stroke-width:0.264509" /><path
         fill="#ffffff"
         d="m 77.597194,136.49945 q -0.198381,0 -0.31741,-0.14548 -0.105803,-0.13226 -0.105803,-0.30419 0,-0.19838 0.119029,-0.33063 0.132254,-0.14548 0.304184,-0.14548 0.158706,0 0.29096,0.1587 0.119029,0.14548 0.119029,0.34386 l -0.119029,0.29096 q -0.132254,0.13226 -0.29096,0.13226"
         id="path2550"
         style="stroke-width:0.264509" /><path
         fill="#ffffff"
         d="m 85.479551,135.62657 -0.158705,-0.11903 -0.0529,-0.23806 q 0,-0.17193 0.06613,-0.27773 0.0529,-0.11903 0.14548,-0.11903 l 0.14548,0.13225 0.0529,0.27774 -0.0529,0.23806 -0.14548,0.1058"
         id="path2552"
         style="stroke-width:0.264509" /><path
         fill="#0d131a"
         d="m 75.653056,134.10565 q -0.330636,-0.19839 -0.409988,0.22483 l -0.132255,1.20351 q -0.0529,0.79353 0.01323,1.07126 0.06613,0.26451 0.939005,0.50257 l 1.124162,0.26451 1.639953,0.33063 0.383538,0.0397 q 0.105803,-0.0132 0.09258,-0.1058 l -0.449665,-0.99191 q -0.07935,-0.19838 -0.304185,-0.38354 -0.899329,-0.7274 -1.322543,-1.04481 l -1.573826,-1.11093 m -0.277734,-0.46289 q 0.886104,0.50256 1.85156,1.21674 l 1.322543,1.09771 0.317411,0.27773 q 0.211607,0.18516 0.264508,0.33064 l 0.687723,1.44157 0.09258,0.23806 q 0.02645,0.13225 -0.09258,0.17193 l -0.105804,-0.0794 -0.06613,-0.17193 q -0.02645,-0.0661 -0.198381,-0.13225 l -0.330636,-0.0661 q -0.409988,0 -1.626728,-0.26451 l -2.063167,-0.50256 q -0.29096,-0.11903 -0.476116,-0.42322 -0.211607,-0.33063 -0.211607,-0.7803 0,-0.37031 0.07935,-1.04481 l 0.06613,-0.70094 0.02645,-0.27774 -0.02645,-0.23806 q -0.370312,-0.39676 -0.330636,-0.46289 0.0529,-0.0661 0.819977,0.37032"
         id="path2554"
         style="stroke-width:0.264509" /><path
         fill="#0d131a"
         d="m 85.968892,135.08433 q 0,1.20351 -0.75385,1.93091 l -0.198381,-0.0661 q 0.343861,-0.30418 0.542243,-0.7803 0.211606,-0.48934 0.211606,-1.04481 0,-0.48934 -0.158705,-0.91255 l 0.14548,-0.25128 q 0.211607,0.55546 0.211607,1.12416"
         id="path2556"
         style="stroke-width:0.264509" /><path
         fill="#0d131a"
         d="m 86.259851,133.80146 -0.0529,-0.34386 q -0.449665,0.8332 -0.727399,1.67963 -0.238058,0.74062 -0.264509,1.53415 0.449665,-0.21161 0.780301,-0.79353 0.264508,-0.47611 0.277734,-0.75385 0.06613,-0.70094 -0.01323,-1.32254 M 82.14674,117.90449 q -0.502567,-1.6135 -1.441572,-1.6135 -0.621596,0 -0.886104,0.71417 -0.198382,0.55547 -0.132255,1.25642 l 0.171931,2.14252 0.105803,2.65831 q -0.02645,1.37545 -0.383537,2.02349 -0.264509,0.46289 -0.978682,0.89933 -0.568693,0.34386 -1.362219,0.48934 l -1.21674,0.0794 0.515792,0.22484 0.621595,0.33063 0.489341,0.38354 0.634821,0.54224 q 0.304185,0.34386 0.304185,0.43644 -0.01323,0.10581 -0.436439,-0.19838 l -0.542243,-0.35709 -0.423214,-0.31741 q -0.343861,-0.34386 -0.714173,-0.43644 -0.251283,-0.0397 -0.661272,-0.2645 -0.489341,-0.25129 -0.886104,-0.60837 -1.745756,-1.44158 -3.134427,-2.76412 l -3.068299,-2.94927 q -0.370312,-0.34386 -1.110937,-0.40999 -0.740624,-0.0793 -1.071259,0.21161 -0.304185,0.26451 -0.264509,0.8861 0.03968,0.55547 0.264509,0.85966 l 1.24319,1.46802 1.38867,1.75898 q 2.631861,4.20569 2.631861,6.30853 0,0.96546 -0.171931,1.81188 l -0.304185,1.13739 -0.264508,1.15061 q -0.132255,0.71418 -0.132255,1.03159 0,0.38354 0.185156,0.91255 0.198382,0.60837 0.568694,1.13739 0.846428,1.24319 1.058034,1.42835 l 0.251284,0.0397 q 0.224832,0 0.343861,0.0794 l 0.939005,0.74062 q 0.859653,0.76707 1.454798,1.49447 l 1.811884,2.0764 q 0.965456,1.12416 1.177063,1.52092 0.198381,0.33064 1.07126,0.89933 1.097711,0.71417 1.970589,0.71417 0.449665,0 0.859653,-0.17193 l 0.502566,-0.25128 q 0.648046,-0.29096 1.335769,-0.30419 1.362219,-0.0661 1.732531,-0.33063 0.238058,-0.17193 0.396763,-0.64805 -0.489341,0.47612 -0.939005,0.55547 -0.60837,0.13225 -1.573827,-0.33064 l -0.661271,-0.22483 -0.780301,-0.1058 -0.92578,0.18515 q -0.687722,0.13226 -1.137387,-0.0132 -0.489341,-0.15871 -0.767075,-0.44967 l -0.449664,-0.64804 q -0.515792,-0.79353 -1.441572,-1.81189 -1.67963,-1.81188 -2.195422,-2.22187 -0.211607,-0.17193 -0.872878,-0.39676 l -0.819977,-0.31741 q -0.211607,-0.13226 -0.31741,-0.47612 -0.06613,-0.22483 -0.14548,-0.76707 -0.0529,-0.38354 0.01323,-0.68772 0.0529,-0.25129 0.132254,-0.25129 0.119029,0.0264 0.132254,0.37031 0.14548,1.19029 0.29096,1.44158 0.09258,0.1587 0.661271,0.33063 0.674497,0.21161 0.939006,0.40999 l 1.38867,1.17706 q 1.005133,0.93901 1.507699,1.5606 0.714173,0.89933 1.335768,1.91769 l 0.489341,0.33064 q 0.383538,0.1587 0.859653,0.1587 l 0.674497,-0.0926 0.700948,-0.0926 0.780301,0.0926 0.753849,0.19838 q 1.005133,0.43644 1.190289,0.43644 0.383537,0 1.005133,-0.64805 0.753849,-0.7803 1.520924,-2.16897 0.436439,-0.79353 0.727399,-1.54738 0.330636,-0.84642 0.330636,-1.26964 0,-0.34386 -0.277735,-0.51579 l -0.595144,-0.43644 q -0.290959,-0.34386 -0.674497,-1.25641 -0.343861,-0.79353 -0.502566,-1.38867 -0.224833,-0.81998 -0.555468,-1.71931 -0.264509,0.7803 -0.60837,1.19029 l -0.383538,0.34386 q -0.224832,0.1587 -0.224832,0.33064 l -0.06613,0.13225 -0.119029,-0.0265 q -0.119029,-0.23806 -0.119029,-0.58192 l 0.119029,-0.85965 q 0.132254,-0.7274 0.251283,-0.99191 l 0.912555,-2.35413 q 0.343861,-1.03158 0.343861,-1.7722 0,-0.50257 -0.198381,-0.92579 -0.158705,-0.31741 -0.529018,-0.7803 -0.357086,-0.43643 -0.833202,-1.26964 -0.542242,-0.939 -0.886103,-1.79866 -0.740625,-1.89123 -1.269642,-5.01243 -0.476115,-2.67154 -0.63482,-3.17411 m 0.31741,-0.62159 0.714173,3.34603 0.714173,3.26668 q 0.383538,1.38867 1.21674,3.00218 l 0.965456,1.7722 q 0.595145,1.09771 0.687723,1.54738 0.105803,0.50257 0.07935,0.8861 l -0.158705,0.70095 -0.251283,0.89933 0.09258,0.63482 q 0.09258,0.80675 0.03968,1.67963 l 1.005133,2.84347 0.476116,1.09771 q 0.290959,0.54224 0.476115,0.70095 l 0.542243,0.38353 q 0.370312,0.29096 0.370312,0.68773 0,0.80675 -0.714174,2.30122 -0.700947,1.49447 -1.600277,2.55251 -0.0529,0.68772 -0.608369,1.36222 -0.29096,0.33063 -1.137387,0.47611 l -1.468023,0.17193 q -0.383538,0.0529 -1.097711,0.39677 -0.60837,0.30418 -1.137387,0.30418 -0.661272,0 -1.600277,-0.44966 -0.7803,-0.38354 -1.163838,-0.74063 l -0.872878,-1.00513 -1.296093,-1.60028 -2.817016,-3.13442 q -0.370312,-0.38354 -0.833202,-0.47612 l -0.46289,-0.0926 -0.714174,-0.81997 -0.714173,-0.92578 -0.555468,-1.01836 q -0.330636,-0.6745 -0.330636,-0.97868 0,-0.42322 0.489341,-2.40703 0.436439,-1.86479 0.436439,-3.00217 0,-0.76708 -0.63482,-2.40703 -0.555468,-1.4548 -1.229965,-2.64509 -0.502567,-0.8861 -1.811884,-2.32767 l -1.547376,-1.69286 q -0.515791,-0.64805 -0.449664,-1.52092 0.0529,-0.79353 0.515791,-1.16384 0.423214,-0.35709 1.282867,-0.38354 1.005133,-0.0397 1.639954,0.56869 l 2.380577,2.36736 2.221872,2.20864 q 1.322543,1.17707 1.864786,1.41512 0.343861,0.15871 1.150613,0.13226 0.833202,-0.0397 1.309317,-0.25129 0.687723,-0.29095 1.018358,-0.63482 0.515792,-0.55546 0.515792,-1.48124 l 0.01323,-1.79866 -0.0529,-1.57383 -0.211607,-2.80379 q -0.02645,-0.60837 0.343861,-1.21674 0.409988,-0.6745 1.044809,-0.76707 0.634821,-0.0794 1.190289,0.43643 0.515792,0.48935 0.674497,1.17707"
         id="path2558"
         style="stroke-width:0.264509" /></g></g></svg>
